<svg width="18" height="20" viewBox="0 0 18 20" fill="none" xmlns="http://www.w3.org/2000/svg">
<path d="M12.8601 2.39V17.39C12.8601 19.06 14.0001 20 15.2501 20C16.3901 20 17.6401 19.21 17.6401 17.39V2.5C17.6401 0.96 16.5001 0 15.2501 0C14.0001 0 12.8601 1.06 12.8601 2.39ZM6.61011 10V17.39C6.61011 19.07 7.77011 20 9.00011 20C10.1401 20 11.3901 19.21 11.3901 17.39V10.11C11.3901 8.57 10.2501 7.61 9.00011 7.61C7.75011 7.61 6.61011 8.67 6.61011 10ZM2.75011 15.23C4.07011 15.23 5.14011 16.3 5.14011 17.61C5.14011 18.2439 4.88831 18.8518 4.44009 19.3C3.99188 19.7482 3.38398 20 2.75011 20C2.11624 20 1.50833 19.7482 1.06012 19.3C0.61191 18.8518 0.360107 18.2439 0.360107 17.61C0.360107 16.3 1.43011 15.23 2.75011 15.23Z" fill="white" fill-opacity="0.49"/>
</svg>
