<svg width="28" height="30" viewBox="0 0 28 30" fill="none" xmlns="http://www.w3.org/2000/svg">
<path d="M9.00876 2.98125C7.22299 3.47341 5.44935 4.00856 3.68938 4.58625C3.52868 4.63831 3.38582 4.73446 3.27709 4.86374C3.16836 4.99302 3.09812 5.15025 3.07439 5.3175C2.03564 13.1119 4.43564 18.7987 7.29876 22.545C8.51098 24.147 9.9564 25.5583 11.5869 26.7319C12.2356 27.1894 12.8094 27.5194 13.2613 27.7313C13.4863 27.8381 13.67 27.9094 13.8106 27.9525C13.8721 27.9741 13.9355 27.9898 14 27.9994C14.0637 27.989 14.1264 27.9733 14.1875 27.9525C14.33 27.9094 14.5138 27.8381 14.7388 27.7313C15.1888 27.5194 15.7644 27.1875 16.4131 26.7319C18.0436 25.5583 19.489 24.147 20.7013 22.545C23.5644 18.8006 25.9644 13.1119 24.9256 5.3175C24.9021 5.15017 24.832 4.99284 24.7232 4.86352C24.6144 4.7342 24.4715 4.63811 24.3106 4.58625C23.09 4.18688 21.0294 3.53625 18.9913 2.98312C16.91 2.41875 14.9956 2.00063 14 2.00063C13.0063 2.00063 11.09 2.41875 9.00876 2.98312V2.98125ZM8.51001 1.05C10.5444 0.496875 12.7063 0 14 0C15.2938 0 17.4556 0.496875 19.49 1.05C21.5713 1.6125 23.6694 2.27812 24.9031 2.68125C25.419 2.8516 25.8763 3.164 26.2225 3.58256C26.5688 4.00113 26.79 4.50889 26.8606 5.0475C27.9781 13.4419 25.385 19.6631 22.2388 23.7787C20.9046 25.5393 19.3137 27.0897 17.5194 28.3781C16.8989 28.824 16.2415 29.216 15.5544 29.55C15.0294 29.7975 14.465 30 14 30C13.535 30 12.9725 29.7975 12.4456 29.55C11.7585 29.216 11.1011 28.824 10.4806 28.3781C8.68631 27.0897 7.09548 25.5393 5.76126 23.7787C2.61501 19.6631 0.0218851 13.4419 1.13939 5.0475C1.21005 4.50889 1.43122 4.00113 1.77748 3.58256C2.12374 3.164 2.58106 2.8516 3.09688 2.68125C4.88787 2.09402 6.69277 1.55011 8.51001 1.05Z" fill="white"/>
<path d="M16.8125 12.188C16.8128 12.7698 16.6326 13.3375 16.2968 13.8126C15.961 14.2878 15.4861 14.6472 14.9375 14.8411L15.6594 18.5724C15.6856 18.7081 15.6816 18.8479 15.6475 18.9819C15.6133 19.1158 15.55 19.2406 15.462 19.3472C15.3741 19.4538 15.2636 19.5396 15.1386 19.5986C15.0135 19.6575 14.877 19.688 14.7388 19.688H13.2613C13.1232 19.6877 12.9869 19.657 12.8621 19.598C12.7372 19.5389 12.627 19.453 12.5392 19.3465C12.4515 19.2399 12.3883 19.1152 12.3543 18.9814C12.3203 18.8476 12.3163 18.7079 12.3425 18.5724L13.0625 14.8411C12.5764 14.6693 12.1469 14.3671 11.821 13.9677C11.495 13.5682 11.2851 13.0869 11.2142 12.5762C11.1433 12.0656 11.2142 11.5452 11.419 11.0721C11.6238 10.599 11.9547 10.1913 12.3756 9.89348C12.7965 9.59571 13.2911 9.41936 13.8054 9.38369C14.3197 9.34803 14.834 9.45441 15.2919 9.69124C15.7499 9.92806 16.1339 10.2862 16.4021 10.7265C16.6703 11.1669 16.8122 11.6724 16.8125 12.188Z" fill="white"/>
</svg>
