<svg width="172" height="124" viewBox="0 0 172 124" fill="none" xmlns="http://www.w3.org/2000/svg">
<g clip-path="url(#clip0_640_44)">
<path d="M124.36 56.1331H108.726C110.22 56.1325 111.699 55.8377 113.079 55.2655C114.459 54.6933 115.713 53.8549 116.769 52.7982C117.825 51.7414 118.662 50.4871 119.233 49.1067C119.804 47.7263 120.098 46.2469 120.098 44.753V24.8699C120.096 21.8543 118.898 18.9626 116.766 16.8303C114.633 14.6979 111.742 13.4995 108.726 13.4984H87.057V8.38373C87.9726 8.14934 88.7844 7.61727 89.3646 6.87118C89.9448 6.1251 90.2605 5.20733 90.2622 4.26219C90.2622 3.13179 89.8131 2.04768 89.0138 1.24837C88.2145 0.449051 87.1304 0 86 0C84.8696 0 83.7855 0.449051 82.9862 1.24837C82.1868 2.04768 81.7378 3.13179 81.7378 4.26219C81.7371 5.20765 82.0508 6.12652 82.6294 6.87419C83.2081 7.62186 84.019 8.15589 84.9344 8.39226V13.5069H63.2527C60.2419 13.5125 57.3563 14.7119 55.2286 16.842C53.1008 18.9722 51.9047 21.8591 51.9024 24.8699V44.753C51.9021 47.6124 52.9793 50.3669 54.9194 52.4674C56.8595 54.5678 59.52 55.86 62.3704 56.0862H47.6402C46.5098 56.0862 45.4257 56.5353 44.6264 57.3346C43.8271 58.1339 43.3781 59.218 43.3781 60.3484C43.3781 61.4788 43.8271 62.5629 44.6264 63.3622C45.4257 64.1615 46.5098 64.6106 47.6402 64.6106H60.4013C62.5734 64.6064 64.6652 65.4316 66.2495 66.9177C67.8338 68.4037 68.791 70.4385 68.9256 72.6065V73.1904C68.9256 77.712 70.7218 82.0484 73.9191 85.2457C77.1164 88.443 81.4528 90.2392 85.9744 90.2392C90.496 90.2392 94.8325 88.443 98.0297 85.2457C101.227 82.0484 103.023 77.712 103.023 73.1904C103.023 70.9296 103.921 68.7614 105.52 67.1627C107.119 65.5641 109.287 64.666 111.548 64.666H124.334C125.465 64.666 126.549 64.2169 127.348 63.4176C128.147 62.6183 128.596 61.5342 128.596 60.4038C128.596 59.2734 128.147 58.1893 127.348 57.39C126.549 56.5907 125.465 56.1416 124.334 56.1416L124.36 56.1331Z" fill="#2F455C"/>
<path d="M86.8098 61.8916L86 62.4925L85.1987 61.8916C84.3693 61.2789 83.3393 61.0016 82.3144 61.115C81.2895 61.2284 80.3451 61.7242 79.6698 62.5034C78.9944 63.2826 78.6378 64.2879 78.6712 65.3185C78.7045 66.3492 79.1254 67.3293 79.8497 68.0632L86 74.2136L92.1546 68.0632C92.8842 67.33 93.3094 66.3479 93.3447 65.3142C93.3801 64.2804 93.0231 63.2716 92.3453 62.4902C91.6676 61.7089 90.7193 61.2129 89.6909 61.1018C88.6625 60.9908 87.6302 61.2729 86.8013 61.8916H86.8098Z" fill="url(#paint0_linear_640_44)"/>
<path d="M56.1647 47.5699C58.5101 47.5673 60.8109 48.2118 62.8137 49.4325C69.77 53.7401 77.7798 56.0452 85.9617 56.0943H86.0512C94.2323 56.0487 102.242 53.7464 109.199 49.441C110.743 48.5036 112.468 47.9028 114.26 47.678C116.052 47.4533 117.871 47.6096 119.599 48.1368C119.952 47.0352 120.127 45.8839 120.115 44.7271V24.8311C120.115 21.8163 118.917 18.925 116.785 16.7933C114.653 14.6615 111.762 13.4639 108.747 13.4639H63.274C60.2588 13.4639 57.3671 14.6614 55.2346 16.793C53.1022 18.9247 51.9036 21.816 51.9025 24.8311V44.7271C51.9011 45.8835 52.0764 47.0334 52.4225 48.1368C53.6348 47.7633 54.8961 47.5722 56.1647 47.5699ZM60.4269 28.5819C60.4269 26.1183 62.1317 24.1236 64.216 24.1236H107.801C109.894 24.1236 111.59 26.1183 111.59 28.5819V40.9806C111.59 43.4399 109.885 45.4388 107.801 45.4388H64.2202C62.1275 45.4388 60.4311 43.4399 60.4311 40.9806L60.4269 28.5819Z" fill="url(#paint1_linear_640_44)"/>
<path d="M70.9672 37.891C72.8316 37.5216 74.7503 37.5216 76.6146 37.891C76.8587 37.9389 77.1102 37.9328 77.3517 37.8733C77.5931 37.8137 77.8186 37.702 78.0123 37.5461C78.206 37.3901 78.3633 37.1937 78.473 36.9705C78.5828 36.7474 78.6424 36.5029 78.6477 36.2543V36.2287C78.6815 35.5711 78.5811 34.9135 78.3527 34.2958C78.1243 33.6782 77.7727 33.1135 77.3192 32.6361C76.8656 32.1587 76.3197 31.7785 75.7146 31.5187C75.1096 31.259 74.458 31.125 73.7995 31.125C73.141 31.125 72.4894 31.259 71.8843 31.5187C71.2792 31.7785 70.7333 32.1587 70.2798 32.6361C69.8262 33.1135 69.4746 33.6782 69.2462 34.2958C69.0178 34.9135 68.9174 35.5711 68.9512 36.2287C68.9533 36.4778 69.0099 36.7234 69.117 36.9482C69.2242 37.173 69.3793 37.3717 69.5715 37.5301C69.7636 37.6886 69.9882 37.803 70.2293 37.8653C70.4705 37.9277 70.7223 37.9364 70.9672 37.891Z" fill="url(#paint2_linear_640_44)"/>
<path d="M95.4834 37.8909C97.3463 37.5211 99.2637 37.5211 101.127 37.8909C101.371 37.9388 101.622 37.9328 101.864 37.8732C102.105 37.8136 102.33 37.702 102.524 37.546C102.718 37.3901 102.875 37.1936 102.985 36.9705C103.095 36.7473 103.154 36.5029 103.16 36.2542V36.2287C103.16 34.9411 102.648 33.7063 101.738 32.7959C100.827 31.8855 99.5925 31.374 98.305 31.374C97.0174 31.374 95.7826 31.8855 94.8722 32.7959C93.9618 33.7063 93.4503 34.9411 93.4503 36.2287C93.4519 36.4795 93.5088 36.7268 93.6169 36.9531C93.7251 37.1794 93.8819 37.379 94.076 37.5378C94.2702 37.6966 94.497 37.8105 94.7403 37.8716C94.9835 37.9326 95.2373 37.9392 95.4834 37.8909Z" fill="url(#paint3_linear_640_44)"/>
<path d="M63.274 56.0947H47.6402C46.6876 56.0945 45.7624 56.4134 45.0123 57.0006C44.2621 57.5877 43.7303 58.4092 43.5016 59.334C45.1987 59.36 46.8487 59.8962 48.2369 60.8727C51.6525 63.2963 55.7358 64.6008 59.9239 64.6063H60.4013C61.8479 64.6012 63.2721 64.9643 64.5397 65.6615C65.8073 66.3586 66.8766 67.367 67.647 68.5915C67.7887 68.8118 67.9837 68.9929 68.2138 69.1181C68.444 69.2432 68.702 69.3084 68.964 69.3075V61.8018C68.9674 61.0528 68.8226 60.3106 68.5381 59.6178C68.2535 58.9249 67.8348 58.2952 67.306 57.7648C66.7772 57.2344 66.1487 56.8138 65.4567 56.5272C64.7648 56.2406 64.0229 56.0936 63.274 56.0947Z" fill="url(#paint4_linear_640_44)"/>
<path d="M124.483 56.0947H108.854C108.105 56.0947 107.364 56.2425 106.673 56.5296C105.982 56.8166 105.354 57.2374 104.826 57.7676C104.298 58.2978 103.879 58.9271 103.595 59.6194C103.31 60.3117 103.165 61.0534 103.168 61.8018V69.3289C103.431 69.3296 103.689 69.2645 103.92 69.1394C104.151 69.0143 104.347 68.8332 104.489 68.6128C105.26 67.3883 106.329 66.38 107.597 65.6828C108.864 64.9856 110.288 64.6225 111.735 64.6277H112.217C116.405 64.6213 120.488 63.3169 123.904 60.894C125.29 59.9169 126.939 59.3806 128.635 59.3553C128.41 58.4245 127.878 57.5965 127.125 57.005C126.371 56.4135 125.441 56.0928 124.483 56.0947Z" fill="url(#paint5_linear_640_44)"/>
<path d="M87.1338 83.019C80.3739 83.8459 77.9615 76.5107 69.3093 76.7366C69.8887 79.413 71.1003 81.9118 72.8428 84.0243C74.5853 86.1368 76.8081 87.8016 79.3254 88.8796C85.7997 91.5221 93.2671 90.3884 98.4158 84.856C100.548 82.5955 102.022 79.7953 102.678 76.7579C94.631 76.7749 93.1861 81.6551 87.1338 83.019Z" fill="url(#paint6_linear_640_44)"/>
<path d="M14.165 115.08C12.3749 113.059 7.26877 113.319 5.10357 111.802C3.1046 109.573 5.9006 107.173 8.39398 107.455C9.8639 107.412 11.3173 107.773 12.5965 108.499C12.8944 108.693 13.2473 108.786 13.6024 108.763C14.881 108.631 15.124 106.785 14.0712 106.142C10.41 103.751 3.84196 103.768 1.59579 108.017C0.700725 109.748 0.922359 112.446 2.30757 113.754C4.35343 116.427 12.1746 115.276 12.0637 118.532C11.9273 120.565 10.2054 121.055 8.01891 121.089C6.18351 121.136 4.37034 120.679 2.77641 119.768C1.54464 118.886 0.329914 120.45 0.901048 121.614C2.94264 124.218 8.14678 124.337 11.0962 123.596C14.8512 122.85 17.0335 117.854 14.165 115.08Z" fill="#2F455C"/>
<path d="M36.4307 110.945C34.2485 109.666 30.6725 110.476 29.5728 112.914C28.5286 109.44 23.1795 109.645 21.6707 112.633C22.1609 109.922 18.4144 109.543 18.4059 112.096V122.214C18.4059 123.297 18.9813 123.919 20.0639 123.919C21.1465 123.919 21.7688 123.348 21.7688 122.214V116.46C21.7688 114.534 22.6212 112.991 24.5775 112.978C26.3549 113.008 26.6831 114.129 26.7086 115.868V122.214C26.5126 124.482 30.2676 124.499 30.0545 122.214C30.2249 120.462 29.5174 115.233 30.8046 113.903C31.5377 112.833 33.7881 112.603 34.5383 113.677C35.4845 114.811 34.8665 120.735 35.0327 122.201C34.858 123.834 36.9209 124.413 37.9395 123.48C38.8175 122.9 38.2123 116.66 38.3657 115.731C38.3444 113.711 38.0248 111.968 36.4307 110.945Z" fill="#2F455C"/>
<path d="M50.8582 110.945C49.3537 109.999 42.4106 110.072 42.304 112.65C42.2906 112.856 42.3335 113.061 42.4282 113.243C42.5228 113.426 42.6656 113.58 42.8411 113.687C43.0167 113.795 43.2182 113.852 43.424 113.853C43.6298 113.855 43.8321 113.8 44.0089 113.694C46.5662 112.544 50.6537 111.99 50.1379 115.941C45.7479 115.804 39.3759 116.252 42.125 121.938C43.8299 124.559 48.9445 124.857 50.1933 121.639C49.9035 123.493 51.4507 124.623 52.9211 123.476C53.7182 122.854 53.1684 116.704 53.3474 115.783C53.3133 113.584 52.7549 111.879 50.8582 110.945ZM49.7458 120.126C48.5183 122.871 43.2247 121.652 45.181 118.587C46.3744 117.701 48.4288 117.935 50.1465 117.876C50.2243 118.648 50.0856 119.428 49.7458 120.126Z" fill="#2F455C"/>
<path d="M92.0481 113.515C91.2638 113.635 87.1551 113.208 86.601 113.835C86.3677 114.092 86.2384 114.426 86.2384 114.773C86.2384 115.119 86.3677 115.454 86.601 115.71C87.1252 116.345 89.8403 115.958 90.5733 116.056V120.454C85.5354 122.129 80.4038 120.386 80.6723 114.317C80.327 108.051 86.2515 105.988 91.136 108.699C92.3635 109.496 93.6549 108.09 93.2116 106.879C91.8605 104.974 88.9068 104.684 86.7459 104.573C78.4474 104.254 75.0376 112.748 78.2215 119.457C80.2929 123.621 85.3692 124.571 89.7848 123.719C91.0635 123.369 92.4487 123.391 93.2244 122.44C93.672 122.014 93.3651 115.595 93.4503 114.943C93.4738 114.752 93.4539 114.558 93.3922 114.376C93.3304 114.194 93.2283 114.028 93.0935 113.891C92.9587 113.754 92.7947 113.649 92.6137 113.584C92.4327 113.519 92.2394 113.495 92.0481 113.515Z" fill="#2F455C"/>
<path d="M105.627 110.638C103.888 109.731 101.195 111.274 100.611 112.949C100.611 112.301 100.675 111.244 100.185 110.839C99.6688 110.268 98.2921 110.268 97.7764 110.839C96.9027 111.167 97.525 121.418 97.3502 122.215C97.3306 122.445 97.3583 122.678 97.4316 122.898C97.5049 123.118 97.6222 123.32 97.7764 123.493C98.7993 124.422 100.918 123.881 100.734 122.215V116.674C100.67 114.308 102.401 113.307 104.617 113.264C106.032 113.243 106.407 111.504 105.627 110.638Z" fill="#2F455C"/>
<path d="M119.411 117.675C120.179 116.78 119.531 115.118 119.335 114.197C116.888 107.467 106.736 110.199 107.17 117.18C106.859 123.331 114.067 125.611 118.759 122.828C119.838 122.312 119.931 120.513 118.597 120.377C115.396 121.613 110.925 122.619 110.375 117.931C110.959 117.824 119.164 118.199 119.411 117.675ZM111.944 113.153C112.44 112.812 113.021 112.617 113.622 112.592C114.223 112.566 114.819 112.71 115.342 113.008C115.865 113.306 116.293 113.745 116.578 114.275C116.863 114.804 116.992 115.404 116.952 116.004H110.38C110.416 115.443 110.574 114.897 110.845 114.404C111.115 113.912 111.49 113.484 111.944 113.153Z" fill="#2F455C"/>
<path d="M134.188 117.675C134.951 116.78 134.303 115.118 134.107 114.197C131.661 107.467 121.508 110.199 121.943 117.18C121.632 123.331 128.839 125.611 133.532 122.828C134.61 122.312 134.704 120.513 133.37 120.377C130.169 121.613 125.719 122.619 125.148 117.931C125.732 117.824 133.941 118.199 134.188 117.675ZM126.721 113.153C128.971 111.733 131.836 113.217 131.725 116.004H125.152C125.189 115.443 125.348 114.897 125.619 114.404C125.89 113.911 126.267 113.484 126.721 113.153Z" fill="#2F455C"/>
<path d="M145.334 121.046C143.425 121.583 141.349 121.046 141.532 118.663V113.14C142.632 112.952 145.824 113.826 145.709 111.882C145.828 109.943 142.636 110.804 141.532 110.625C141.438 109.257 142.103 106.337 139.874 106.503C137.632 106.333 138.272 109.244 138.169 110.625C137.159 110.625 135.352 110.356 135.441 111.882C135.361 113.387 137.146 113.14 138.169 113.14C138.306 115.049 137.777 120.04 138.732 121.664C139.623 123.407 141.328 123.965 143.361 123.978C144.567 123.957 146.25 123.757 146.067 122.158C146.097 121.447 145.956 121.046 145.334 121.046Z" fill="#2F455C"/>
<path d="M159.31 117.675C160.073 116.78 159.429 115.118 159.229 114.197C156.786 107.467 146.634 110.199 147.064 117.18C146.758 123.331 153.961 125.611 158.653 122.828C159.736 122.312 159.825 120.513 158.491 120.377C155.29 121.613 150.819 122.619 150.27 117.931C150.866 117.824 159.071 118.199 159.31 117.675ZM151.851 113.153C152.346 112.812 152.928 112.617 153.529 112.592C154.13 112.566 154.726 112.71 155.249 113.008C155.772 113.306 156.2 113.745 156.485 114.275C156.77 114.804 156.899 115.404 156.859 116.004H150.282C150.319 115.443 150.478 114.897 150.749 114.404C151.02 113.911 151.396 113.484 151.851 113.153Z" fill="#2F455C"/>
<path d="M171.244 111.669C171.065 108.767 166.151 111.217 165.839 112.948C165.839 112.3 165.903 111.243 165.413 110.838C164.897 110.267 163.521 110.267 163.005 110.838C162.153 111.162 162.754 121.421 162.579 122.214C162.559 122.445 162.587 122.677 162.66 122.897C162.734 123.117 162.851 123.32 163.005 123.493C164.028 124.422 166.146 123.88 165.963 122.214V116.673C166.057 111.669 171.385 114.738 171.244 111.669Z" fill="#2F455C"/>
<path d="M74.3813 121.233C73.5288 120.654 71.7046 121.881 70.6092 120.581C69.5735 119.592 70.2128 114.478 70.0466 113.14C71.1463 112.952 74.3344 113.826 74.2236 111.882C74.3429 109.943 71.1505 110.804 70.0466 110.625C69.9528 109.257 70.6177 106.337 68.3886 106.503C66.1424 106.333 66.786 109.244 66.6837 110.625C64.3608 110.599 61.1429 110.292 60.2478 112.948V112.095C60.4524 109.853 56.7741 109.853 56.983 112.095V122.214C56.804 123.859 58.9436 124.422 59.9665 123.492C61.275 121.51 59.3442 116.076 61.2239 114.312C62.1275 112.999 64.8894 113.101 66.6965 113.148C66.8287 115.057 66.3044 120.049 67.2591 121.672C68.1499 123.416 69.8548 123.974 71.8879 123.987C73.7973 124.029 75.2252 123.279 74.3813 121.233Z" fill="#2F455C"/>
</g>
<defs>
<linearGradient id="paint0_linear_640_44" x1="78.6563" y1="67.6413" x2="93.3608" y2="67.6413" gradientUnits="userSpaceOnUse">
<stop stop-color="#1DCDFE"/>
<stop offset="1" stop-color="#21D0B2"/>
</linearGradient>
<linearGradient id="paint1_linear_640_44" x1="51.9025" y1="34.7791" x2="120.115" y2="34.7791" gradientUnits="userSpaceOnUse">
<stop stop-color="#1DCDFE"/>
<stop offset="1" stop-color="#21D0B2"/>
</linearGradient>
<linearGradient id="paint2_linear_640_44" x1="68.9384" y1="34.6517" x2="78.6477" y2="34.6517" gradientUnits="userSpaceOnUse">
<stop stop-color="#1DCDFE"/>
<stop offset="1" stop-color="#21D0B2"/>
</linearGradient>
<linearGradient id="paint3_linear_640_44" x1="93.4503" y1="34.6516" x2="103.16" y2="34.6516" gradientUnits="userSpaceOnUse">
<stop stop-color="#1DCDFE"/>
<stop offset="1" stop-color="#21D0B2"/>
</linearGradient>
<linearGradient id="paint4_linear_640_44" x1="43.5016" y1="62.7011" x2="68.9555" y2="62.7011" gradientUnits="userSpaceOnUse">
<stop stop-color="#1DCDFE"/>
<stop offset="1" stop-color="#21D0B2"/>
</linearGradient>
<linearGradient id="paint5_linear_640_44" x1="103.168" y1="62.7011" x2="128.622" y2="62.7011" gradientUnits="userSpaceOnUse">
<stop stop-color="#1DCDFE"/>
<stop offset="1" stop-color="#21D0B2"/>
</linearGradient>
<linearGradient id="paint6_linear_640_44" x1="69.3093" y1="83.4879" x2="102.669" y2="83.4879" gradientUnits="userSpaceOnUse">
<stop stop-color="#1DCDFE"/>
<stop offset="1" stop-color="#21D0B2"/>
</linearGradient>
<clipPath id="clip0_640_44">
<rect width="170.488" height="124" fill="white" transform="translate(0.756104)"/>
</clipPath>
</defs>
</svg>
