<svg width="15" height="17" viewBox="0 0 15 17" fill="none" xmlns="http://www.w3.org/2000/svg">
<path d="M14.6859 4.2607C14.6875 3.99679 14.6218 3.73683 14.4952 3.50529C14.3685 3.27376 14.185 3.07827 13.962 2.93723C13.7389 2.79619 13.4836 2.71424 13.2201 2.6991C12.9567 2.68396 12.6937 2.73613 12.4559 2.8507C12.4402 2.58493 12.3582 2.32732 12.2174 2.10136C12.0767 1.87539 11.8815 1.68827 11.6499 1.55704C11.4183 1.42581 11.1575 1.35465 10.8913 1.35005C10.6251 1.34544 10.362 1.40755 10.1259 1.5307C10.0993 1.14851 9.94012 0.787597 9.67583 0.510233C9.41155 0.232869 9.05874 0.0564483 8.67828 0.0114097C8.29783 -0.033629 7.91358 0.0555393 7.59184 0.26353C7.2701 0.47152 7.03105 0.785288 6.91592 1.1507C6.66518 1.00031 6.37831 0.920817 6.08592 0.920697C5.87079 0.921351 5.6579 0.964456 5.45946 1.04754C5.26101 1.13063 5.08091 1.25206 4.92949 1.40488C4.77806 1.5577 4.65829 1.7389 4.57702 1.93809C4.49576 2.13729 4.45461 2.35057 4.45592 2.5657V8.8957C3.81592 8.0957 3.19092 7.3057 3.09592 7.1707C2.95132 6.94109 2.75054 6.75216 2.51255 6.6218C2.27457 6.49143 2.00727 6.42394 1.73592 6.4257C1.50577 6.41874 1.27663 6.45903 1.06265 6.54407C0.848673 6.62912 0.654396 6.75712 0.491812 6.92017C0.329228 7.08322 0.201788 7.27786 0.117359 7.49209C0.0329294 7.70631 -0.00669784 7.93556 0.000923236 8.1657C0.0459232 9.0657 1.78592 12.2457 2.95592 13.9757C4.72592 16.5957 6.41592 16.9757 6.49092 16.9757H11.7509C11.8505 16.9746 11.9469 16.9413 12.0259 16.8807C12.9238 16.0533 13.5731 14.9918 13.9009 13.8157C14.4009 12.2707 14.6659 10.0507 14.6909 7.0357L14.6859 4.2607ZM13.0459 13.5357C12.7652 14.4873 12.2612 15.3582 11.5759 16.0757H6.62092C6.38592 16.0057 5.08592 15.5257 3.68592 13.4507C2.28592 11.3757 0.925923 8.6107 0.900923 8.1207C0.896894 8.01603 0.914834 7.91168 0.953586 7.81437C0.992339 7.71706 1.05105 7.62894 1.12592 7.5557C1.19968 7.47978 1.28848 7.42011 1.38663 7.3805C1.48479 7.3409 1.59014 7.32223 1.69592 7.3257C1.82801 7.31801 1.95964 7.34712 2.07616 7.4098C2.19268 7.47247 2.28953 7.56625 2.35592 7.6807C2.50092 7.8957 3.53592 9.1807 4.14092 9.9457L5.35592 9.1257V2.5657C5.34752 2.46374 5.36035 2.36115 5.3936 2.26441C5.42685 2.16766 5.4798 2.07886 5.5491 2.00361C5.6184 1.92836 5.70256 1.8683 5.79624 1.82721C5.88993 1.78613 5.99112 1.76492 6.09342 1.76492C6.19572 1.76492 6.29691 1.78613 6.3906 1.82721C6.48429 1.8683 6.56844 1.92836 6.63775 2.00361C6.70705 2.07886 6.76 2.16766 6.79325 2.26441C6.8265 2.36115 6.83932 2.46374 6.83092 2.5657V8.1357H7.73092V1.6357C7.7522 1.45171 7.84037 1.28196 7.97866 1.15874C8.11695 1.03553 8.29571 0.967444 8.48092 0.967444C8.66614 0.967444 8.8449 1.03553 8.98318 1.15874C9.12147 1.28196 9.20964 1.45171 9.23092 1.6357V8.2007H10.1309V2.9757C10.1227 2.87711 10.1349 2.77789 10.167 2.68429C10.199 2.5907 10.2502 2.50478 10.3171 2.43196C10.3841 2.35914 10.4655 2.30101 10.5561 2.26125C10.6466 2.22149 10.7445 2.20096 10.8434 2.20096C10.9424 2.20096 11.0402 2.22149 11.1308 2.26125C11.2214 2.30101 11.3027 2.35914 11.3697 2.43196C11.4367 2.50478 11.4878 2.5907 11.5199 2.68429C11.5519 2.77789 11.5642 2.87711 11.5559 2.9757V8.6957H12.4559V4.2457C12.4703 4.07993 12.5464 3.92558 12.669 3.81313C12.7917 3.70069 12.952 3.63831 13.1184 3.63831C13.2848 3.63831 13.4452 3.70069 13.5678 3.81313C13.6905 3.92558 13.7665 4.07993 13.7809 4.2457V7.0207C13.7659 9.9757 13.5259 12.0807 13.0459 13.5357Z" fill="black"/>
</svg>
