<svg width="300" height="319" viewBox="0 0 300 319" fill="none" xmlns="http://www.w3.org/2000/svg">
<path d="M157.886 311.716C185.152 320.103 215.201 321.667 241.953 311.75C268.705 301.833 291.494 279.361 297.747 251.53C304 223.699 291.099 191.552 265.464 179.024C251.855 172.386 236.054 171.391 222.369 164.903C198.696 153.705 185.314 128.039 178.744 102.703C173.089 80.8724 175.967 61.0127 163.78 42.0397C141.93 8.03685 105.179 -2.77161 78.8651 1.31512C69.8436 2.75324 60.1051 7.14448 50.785 13.3446C24.0094 31.1891 7.11452 60.2744 2.70211 92.1481C-4.14259 141.632 7.63059 193.606 34.8022 231.874C66.3737 276.337 113.09 297.939 157.886 311.716Z" fill="url(#paint0_linear_727_251)"/>
<defs>
<linearGradient id="paint0_linear_727_251" x1="202.571" y1="39.8353" x2="100.538" y2="290.044" gradientUnits="userSpaceOnUse">
<stop stop-color="#1DCDFE"/>
<stop offset="1" stop-color="#21D0B2"/>
</linearGradient>
</defs>
</svg>
