<svg width="43" height="46" viewBox="0 0 43 46" fill="none" xmlns="http://www.w3.org/2000/svg">
<path d="M40.8439 28.6137H32.9589C33.7123 28.6134 34.4584 28.4631 35.1543 28.1715C35.8503 27.8798 36.4827 27.4524 37.0153 26.9137C37.5478 26.3751 37.9702 25.7356 38.2583 25.032C38.5464 24.3283 38.6945 23.5742 38.6942 22.8127V12.6774C38.6936 11.1402 38.0892 9.66613 37.0137 8.57918C35.9383 7.49223 34.4798 6.88133 32.9589 6.88076H22.0299V4.27359C22.4917 4.15411 22.9011 3.88288 23.1937 3.50257C23.4864 3.12225 23.6456 2.65442 23.6465 2.17264C23.6465 1.59642 23.42 1.0438 23.0168 0.636352C22.6137 0.228903 22.0669 0 21.4968 0C20.9267 0 20.3799 0.228903 19.9767 0.636352C19.5736 1.0438 19.3471 1.59642 19.3471 2.17264C19.3467 2.65459 19.5049 3.12297 19.7968 3.5041C20.0887 3.88522 20.4977 4.15744 20.9594 4.27793V6.8851H10.024C8.50545 6.88798 7.05005 7.49936 5.97692 8.58519C4.90378 9.67101 4.30049 11.1426 4.29936 12.6774V22.8127C4.29916 24.2703 4.84248 25.6744 5.821 26.7451C6.79951 27.8158 8.14133 28.4745 9.57897 28.5898H2.14968C1.57955 28.5898 1.03277 28.8187 0.629626 29.2261C0.226483 29.6336 0 30.1862 0 30.7624C0 31.3386 0.226483 31.8913 0.629626 32.2987C1.03277 32.7062 1.57955 32.9351 2.14968 32.9351H8.58582C9.68136 32.9329 10.7364 33.3536 11.5354 34.1111C12.3345 34.8686 12.8173 35.9058 12.8852 37.0109V37.3086C12.8852 39.6135 13.7911 41.824 15.4037 43.4538C17.0163 45.0836 19.2034 45.9992 21.4839 45.9992C23.7644 45.9992 25.9515 45.0836 27.5641 43.4538C29.1767 41.824 30.0826 39.6135 30.0826 37.3086C30.0826 36.1562 30.5356 35.0509 31.3419 34.236C32.1481 33.4211 33.2417 32.9633 34.382 32.9633H40.831C41.4011 32.9633 41.9479 32.7344 42.351 32.327C42.7542 31.9195 42.9807 31.3669 42.9807 30.7907C42.9807 30.2145 42.7542 29.6618 42.351 29.2544C41.9479 28.8469 41.4011 28.618 40.831 28.618L40.8439 28.6137Z" fill="#2F455C"/>
<path d="M21.9052 31.5494L21.4968 31.8558L21.0926 31.5494C20.6743 31.2371 20.1549 31.0957 19.6379 31.1535C19.121 31.2114 18.6447 31.4641 18.3041 31.8613C17.9634 32.2585 17.7836 32.771 17.8004 33.2963C17.8172 33.8217 18.0295 34.3213 18.3948 34.6954L21.4968 37.8305L24.6009 34.6954C24.9689 34.3217 25.1833 33.821 25.2012 33.2941C25.219 32.7671 25.0389 32.2529 24.6971 31.8546C24.3553 31.4563 23.877 31.2034 23.3583 31.1468C22.8397 31.0902 22.319 31.2341 21.9009 31.5494H21.9052Z" fill="url(#paint0_linear_865_436)"/>
<path d="M6.449 24.2488C7.63197 24.2474 8.79237 24.576 9.8025 25.1982C13.311 27.394 17.3508 28.569 21.4774 28.594H21.5225C25.6488 28.5708 29.6887 27.3972 33.1974 25.2025C33.9761 24.7247 34.8459 24.4184 35.7498 24.3039C36.6537 24.1893 37.5713 24.269 38.4427 24.5377C38.6209 23.9762 38.7088 23.3893 38.7028 22.7996V12.6577C38.7028 11.1209 38.0987 9.6471 37.0236 8.56043C35.9484 7.47376 34.4901 6.86328 32.9696 6.86328H10.0347C8.51393 6.86328 7.05545 7.4737 5.97992 8.5603C4.9044 9.64691 4.29989 11.1207 4.29932 12.6577V22.7996C4.29862 23.3891 4.38706 23.9752 4.56158 24.5377C5.17305 24.3473 5.80916 24.2499 6.449 24.2488ZM8.59868 14.5696C8.59868 13.3139 9.45855 12.2971 10.5097 12.2971H32.4924C33.5478 12.2971 34.4034 13.3139 34.4034 14.5696V20.8899C34.4034 22.1435 33.5435 23.1624 32.4924 23.1624H10.5119C9.4564 23.1624 8.60083 22.1435 8.60083 20.8899L8.59868 14.5696Z" fill="url(#paint1_linear_865_436)"/>
<path d="M13.915 19.3151C14.8553 19.1269 15.8231 19.1269 16.7634 19.3151C16.8864 19.3396 17.0133 19.3365 17.1351 19.3061C17.2569 19.2758 17.3706 19.2188 17.4683 19.1393C17.566 19.0598 17.6453 18.9597 17.7007 18.846C17.756 18.7322 17.7861 18.6076 17.7888 18.4808V18.4678C17.8058 18.1326 17.7552 17.7974 17.64 17.4825C17.5248 17.1677 17.3474 16.8799 17.1187 16.6365C16.89 16.3931 16.6146 16.1993 16.3094 16.0669C16.0043 15.9345 15.6756 15.8662 15.3435 15.8662C15.0114 15.8662 14.6827 15.9345 14.3776 16.0669C14.0724 16.1993 13.797 16.3931 13.5683 16.6365C13.3396 16.8799 13.1622 17.1677 13.047 17.4825C12.9318 17.7974 12.8812 18.1326 12.8982 18.4678C12.8993 18.5948 12.9278 18.72 12.9819 18.8346C13.0359 18.9492 13.1141 19.0504 13.2111 19.1312C13.308 19.212 13.4212 19.2703 13.5429 19.3021C13.6645 19.3339 13.7915 19.3383 13.915 19.3151Z" fill="url(#paint2_linear_865_436)"/>
<path d="M26.2798 19.3151C27.2194 19.1266 28.1864 19.1266 29.126 19.3151C29.249 19.3396 29.3759 19.3365 29.4977 19.3061C29.6195 19.2757 29.7332 19.2188 29.8309 19.1393C29.9286 19.0598 30.0079 18.9597 30.0633 18.8459C30.1186 18.7322 30.1487 18.6076 30.1514 18.4808V18.4678C30.1514 17.8115 29.8934 17.1821 29.4342 16.718C28.975 16.2539 28.3523 15.9932 27.7029 15.9932C27.0535 15.9932 26.4307 16.2539 25.9715 16.718C25.5124 17.1821 25.2544 17.8115 25.2544 18.4678C25.2552 18.5956 25.2839 18.7217 25.3384 18.8371C25.393 18.9524 25.472 19.0542 25.57 19.1351C25.6679 19.2161 25.7823 19.2741 25.905 19.3053C26.0277 19.3364 26.1557 19.3397 26.2798 19.3151Z" fill="url(#paint3_linear_865_436)"/>
<path d="M10.0344 28.5938H2.14935C1.66889 28.5936 1.20225 28.7562 0.823902 29.0555C0.445556 29.3548 0.177321 29.7736 0.0620117 30.245C0.917949 30.2582 1.75013 30.5315 2.4503 31.0293C4.17298 32.2647 6.23241 32.9297 8.34472 32.9325H8.58549C9.31513 32.9299 10.0334 33.115 10.6728 33.4704C11.3121 33.8258 11.8514 34.3397 12.2399 34.9639C12.3114 35.0763 12.4097 35.1686 12.5258 35.2324C12.6419 35.2962 12.772 35.3294 12.9042 35.3289V31.5029C12.9059 31.1211 12.8329 30.7428 12.6894 30.3896C12.5459 30.0364 12.3347 29.7154 12.068 29.4451C11.8012 29.1747 11.4843 28.9603 11.1353 28.8142C10.7863 28.6681 10.4121 28.5932 10.0344 28.5938Z" fill="url(#paint4_linear_865_436)"/>
<path d="M40.9063 28.5938H33.0235C32.646 28.5938 32.2722 28.6691 31.9236 28.8154C31.5749 28.9617 31.2583 29.1762 30.9919 29.4465C30.7255 29.7168 30.5145 30.0376 30.371 30.3905C30.2275 30.7433 30.1544 31.1214 30.1558 31.5029V35.3398C30.2882 35.3402 30.4186 35.307 30.5351 35.2432C30.6515 35.1794 30.7502 35.0872 30.8222 34.9748C31.2107 34.3506 31.75 33.8366 32.3894 33.4812C33.0287 33.1258 33.747 32.9408 34.4766 32.9434H34.7196C36.8318 32.9401 38.8911 32.2752 40.614 31.0401C41.3132 30.5421 42.1448 30.2687 43.0001 30.2558C42.8866 29.7813 42.6183 29.3593 42.2384 29.0578C41.8586 28.7562 41.3893 28.5928 40.9063 28.5938Z" fill="url(#paint5_linear_865_436)"/>
<path d="M22.0686 42.3184C18.6592 42.7399 17.4425 39.0007 13.0786 39.1159C13.3709 40.4802 13.982 41.754 14.8608 42.8308C15.7396 43.9076 16.8607 44.7563 18.1304 45.3057C21.3957 46.6528 25.162 46.0749 27.7588 43.2548C28.8342 42.1025 29.5775 40.675 29.9084 39.1268C25.8499 39.1354 25.1211 41.6231 22.0686 42.3184Z" fill="url(#paint6_linear_865_436)"/>
<defs>
<linearGradient id="paint0_linear_865_436" x1="17.7929" y1="34.4803" x2="25.2093" y2="34.4803" gradientUnits="userSpaceOnUse">
<stop stop-color="#1DCDFE"/>
<stop offset="1" stop-color="#21D0B2"/>
</linearGradient>
<linearGradient id="paint1_linear_865_436" x1="4.29932" y1="17.7287" x2="38.7028" y2="17.7287" gradientUnits="userSpaceOnUse">
<stop stop-color="#1DCDFE"/>
<stop offset="1" stop-color="#21D0B2"/>
</linearGradient>
<linearGradient id="paint2_linear_865_436" x1="12.8918" y1="17.6639" x2="17.7888" y2="17.6639" gradientUnits="userSpaceOnUse">
<stop stop-color="#1DCDFE"/>
<stop offset="1" stop-color="#21D0B2"/>
</linearGradient>
<linearGradient id="paint3_linear_865_436" x1="25.2544" y1="17.6639" x2="30.1514" y2="17.6639" gradientUnits="userSpaceOnUse">
<stop stop-color="#1DCDFE"/>
<stop offset="1" stop-color="#21D0B2"/>
</linearGradient>
<linearGradient id="paint4_linear_865_436" x1="0.0620117" y1="31.9613" x2="12.8999" y2="31.9613" gradientUnits="userSpaceOnUse">
<stop stop-color="#1DCDFE"/>
<stop offset="1" stop-color="#21D0B2"/>
</linearGradient>
<linearGradient id="paint5_linear_865_436" x1="30.1558" y1="31.9613" x2="42.9937" y2="31.9613" gradientUnits="userSpaceOnUse">
<stop stop-color="#1DCDFE"/>
<stop offset="1" stop-color="#21D0B2"/>
</linearGradient>
<linearGradient id="paint6_linear_865_436" x1="13.0786" y1="42.5574" x2="29.9041" y2="42.5574" gradientUnits="userSpaceOnUse">
<stop stop-color="#1DCDFE"/>
<stop offset="1" stop-color="#21D0B2"/>
</linearGradient>
</defs>
</svg>
