<svg width="18" height="18" viewBox="0 0 18 18" fill="none" xmlns="http://www.w3.org/2000/svg">
<path d="M0 0.5625C0 0.413316 0.0592632 0.270242 0.164752 0.164752C0.270242 0.0592632 0.413316 0 0.5625 0L3.9375 0C4.08668 0 4.22976 0.0592632 4.33525 0.164752C4.44074 0.270242 4.5 0.413316 4.5 0.5625C4.5 0.711684 4.44074 0.854758 4.33525 0.960248C4.22976 1.06574 4.08668 1.125 3.9375 1.125H1.125V3.9375C1.125 4.08668 1.06574 4.22976 0.960248 4.33525C0.854758 4.44074 0.711684 4.5 0.5625 4.5C0.413316 4.5 0.270242 4.44074 0.164752 4.33525C0.0592632 4.22976 0 4.08668 0 3.9375V0.5625ZM13.5 0.5625C13.5 0.413316 13.5593 0.270242 13.6648 0.164752C13.7702 0.0592632 13.9133 0 14.0625 0L17.4375 0C17.5867 0 17.7298 0.0592632 17.8352 0.164752C17.9407 0.270242 18 0.413316 18 0.5625V3.9375C18 4.08668 17.9407 4.22976 17.8352 4.33525C17.7298 4.44074 17.5867 4.5 17.4375 4.5C17.2883 4.5 17.1452 4.44074 17.0398 4.33525C16.9343 4.22976 16.875 4.08668 16.875 3.9375V1.125H14.0625C13.9133 1.125 13.7702 1.06574 13.6648 0.960248C13.5593 0.854758 13.5 0.711684 13.5 0.5625ZM0.5625 13.5C0.711684 13.5 0.854758 13.5593 0.960248 13.6648C1.06574 13.7702 1.125 13.9133 1.125 14.0625V16.875H3.9375C4.08668 16.875 4.22976 16.9343 4.33525 17.0398C4.44074 17.1452 4.5 17.2883 4.5 17.4375C4.5 17.5867 4.44074 17.7298 4.33525 17.8352C4.22976 17.9407 4.08668 18 3.9375 18H0.5625C0.413316 18 0.270242 17.9407 0.164752 17.8352C0.0592632 17.7298 0 17.5867 0 17.4375V14.0625C0 13.9133 0.0592632 13.7702 0.164752 13.6648C0.270242 13.5593 0.413316 13.5 0.5625 13.5ZM17.4375 13.5C17.5867 13.5 17.7298 13.5593 17.8352 13.6648C17.9407 13.7702 18 13.9133 18 14.0625V17.4375C18 17.5867 17.9407 17.7298 17.8352 17.8352C17.7298 17.9407 17.5867 18 17.4375 18H14.0625C13.9133 18 13.7702 17.9407 13.6648 17.8352C13.5593 17.7298 13.5 17.5867 13.5 17.4375C13.5 17.2883 13.5593 17.1452 13.6648 17.0398C13.7702 16.9343 13.9133 16.875 14.0625 16.875H16.875V14.0625C16.875 13.9133 16.9343 13.7702 17.0398 13.6648C17.1452 13.5593 17.2883 13.5 17.4375 13.5ZM4.5 4.5H5.625V5.625H4.5V4.5Z" fill="black"/>
<path d="M7.875 2.25H2.25V7.875H7.875V2.25ZM3.375 3.375H6.75V6.75H3.375V3.375ZM5.625 12.375H4.5V13.5H5.625V12.375Z" fill="black"/>
<path d="M7.875 10.125H2.25V15.75H7.875V10.125ZM3.375 11.25H6.75V14.625H3.375V11.25ZM12.375 4.5H13.5V5.625H12.375V4.5Z" fill="black"/>
<path d="M10.125 2.25H15.75V7.875H10.125V2.25ZM11.25 3.375V6.75H14.625V3.375H11.25ZM9 9V11.25H10.125V12.375H9V13.5H11.25V11.25H12.375V13.5H13.5V12.375H15.75V11.25H12.375V9H9ZM11.25 11.25H10.125V10.125H11.25V11.25ZM15.75 13.5H14.625V14.625H12.375V15.75H15.75V13.5ZM11.25 15.75V14.625H9V15.75H11.25Z" fill="black"/>
<path d="M13.5 10.125H15.75V9H13.5V10.125Z" fill="black"/>
</svg>
