<?xml version="1.0" encoding="utf-8"?>
<!-- Generator: Adobe Illustrator 16.0.0, SVG Export Plug-In . SVG Version: 6.00 Build 0)  -->
<!DOCTYPE svg PUBLIC "-//W3C//DTD SVG 1.1//EN" "http://www.w3.org/Graphics/SVG/1.1/DTD/svg11.dtd">
<svg version="1.1" id="Layer_1" xmlns="http://www.w3.org/2000/svg" xmlns:xlink="http://www.w3.org/1999/xlink" x="0px" y="0px"
	 width="50px" height="50px" viewBox="-0.5 -0.5 50 50" enable-background="new -0.5 -0.5 50 50" xml:space="preserve">
<path fill="#1DCDFE" d="M0.5,21.833h21.333V0.5H0.5V21.833z M5.833,5.833H16.5V16.5H5.833V5.833z"/>
<path fill="#1DCDFE" d="M0.5,48.5h21.333V27.166H0.5V48.5z M5.833,32.5H16.5v10.666H5.833V32.5z"/>
<path fill="#1DCDFE" d="M27.166,0.5v21.333H48.5V0.5H27.166z M43.166,16.5H32.5V5.833h10.666V16.5z"/>
<path fill="#1DCDFE" d="M48.5,43.166h-5.334V48.5H48.5V43.166z"/>
<path fill="#1DCDFE" d="M32.5,27.166h-5.334V32.5H32.5V27.166z"/>
<path fill="#1DCDFE" d="M37.834,32.5H32.5v5.334h5.334V32.5z"/>
<path fill="#1DCDFE" d="M32.5,37.834h-5.334v5.333H32.5V37.834z"/>
<path fill="#1DCDFE" d="M37.834,43.166H32.5V48.5h5.334V43.166z"/>
<path fill="#1DCDFE" d="M43.166,37.834h-5.332v5.333h5.332V37.834z"/>
<path fill="#1DCDFE" d="M43.166,27.166h-5.332V32.5h5.332V27.166z"/>
<path fill="#1DCDFE" d="M48.5,32.5h-5.334v5.334H48.5V32.5z"/>
</svg>
