<?xml version="1.0" encoding="utf-8"?>
<!-- Generator: Adobe Illustrator 16.0.0, SVG Export Plug-In . SVG Version: 6.00 Build 0)  -->
<!DOCTYPE svg PUBLIC "-//W3C//DTD SVG 1.1//EN" "http://www.w3.org/Graphics/SVG/1.1/DTD/svg11.dtd">
<svg version="1.1" id="Layer_1" xmlns="http://www.w3.org/2000/svg" xmlns:xlink="http://www.w3.org/1999/xlink" x="0px" y="0px"
	 width="50px" height="50px" viewBox="0 0 50 50" enable-background="new 0 0 50 50" xml:space="preserve">
<g>
	<path fill="#1DCDFE" d="M44.227,16.454c-3.098,0-4.828,3.076-4.122,5.362l-7.585,7.605c-0.642-0.192-1.58-0.192-2.221,0
		l-5.448-5.448c0.727-2.286-1.004-5.384-4.124-5.384c-3.097,0-4.849,3.077-4.122,5.384l-9.742,9.721
		C4.577,32.99,1.5,34.72,1.5,37.818c0,2.35,1.923,4.272,4.273,4.272c3.098,0,4.828-3.076,4.123-5.362l9.72-9.742
		c0.642,0.192,1.582,0.192,2.222,0l5.448,5.448c-0.727,2.285,1.004,5.384,4.123,5.384c3.099,0,4.849-3.077,4.123-5.384l7.605-7.584
		c2.285,0.705,5.362-1.025,5.362-4.123C48.5,18.377,46.577,16.454,44.227,16.454z"/>
	<path fill="#1DCDFE" d="M31.409,18.59l2.009-4.422l4.399-1.986l-4.399-1.987l-2.009-4.422l-1.965,4.422L25,12.182l4.444,1.986
		L31.409,18.59z"/>
	<path fill="#1DCDFE" d="M6.841,22.863l1.068-4.273l4.273-1.068l-4.273-1.068l-1.068-4.272l-1.068,4.272L1.5,17.522l4.273,1.068
		L6.841,22.863z"/>
</g>
</svg>
