<svg width="44" height="44" viewBox="0 0 44 44" fill="none" xmlns="http://www.w3.org/2000/svg">
<path d="M22.0001 40.3337C24.4081 40.3368 26.793 39.864 29.0177 38.9425C31.2425 38.0209 33.2631 36.6688 34.9636 34.9638C36.6686 33.2634 38.0207 31.2427 38.9422 29.018C39.8638 26.7933 40.3365 24.4084 40.3334 22.0003C40.3365 19.5923 39.8637 17.2074 38.9421 14.9827C38.0206 12.758 36.6685 10.7374 34.9636 9.03684C33.2631 7.33187 31.2425 5.97976 29.0177 5.05822C26.793 4.13668 24.4081 3.66389 22.0001 3.66701C19.5921 3.66394 17.2072 4.13676 14.9825 5.05829C12.7578 5.97982 10.7371 7.33191 9.0366 9.03684C7.33166 10.7374 5.97958 12.758 5.05805 14.9827C4.13651 17.2074 3.66369 19.5923 3.66676 22.0003C3.66364 24.4084 4.13644 26.7933 5.05798 29.018C5.97951 31.2427 7.33162 33.2634 9.0366 34.9638C10.7371 36.6688 12.7578 38.0209 14.9825 38.9424C17.2072 39.8639 19.5921 40.3367 22.0001 40.3337V40.3337Z" stroke="white" stroke-opacity="0.67" stroke-width="4" stroke-linejoin="round"/>
<path fill-rule="evenodd" clip-rule="evenodd" d="M22.0002 33.9173C22.608 33.9173 23.1908 33.6759 23.6206 33.2461C24.0504 32.8163 24.2918 32.2334 24.2918 31.6257C24.2918 31.0179 24.0504 30.435 23.6206 30.0052C23.1908 29.5754 22.608 29.334 22.0002 29.334C21.3924 29.334 20.8095 29.5754 20.3797 30.0052C19.9499 30.435 19.7085 31.0179 19.7085 31.6257C19.7085 32.2334 19.9499 32.8163 20.3797 33.2461C20.8095 33.6759 21.3924 33.9173 22.0002 33.9173Z" fill="white" fill-opacity="0.67"/>
<path d="M22 11V25.6667" stroke="white" stroke-opacity="0.67" stroke-width="4" stroke-linecap="round" stroke-linejoin="round"/>
</svg>
