<svg width="80" height="80" viewBox="0 0 80 80" fill="none" xmlns="http://www.w3.org/2000/svg">
<path d="M40 0C50.6087 0 60.7828 4.21427 68.2843 11.7157C75.7857 19.2172 80 29.3913 80 40C80 50.6087 75.7857 60.7828 68.2843 68.2843C60.7828 75.7857 50.6087 80 40 80C29.3913 80 19.2172 75.7857 11.7157 68.2843C4.21427 60.7828 0 50.6087 0 40C0 29.3913 4.21427 19.2172 11.7157 11.7157C19.2172 4.21427 29.3913 0 40 0V0ZM40 5C35.4037 5 30.8525 5.9053 26.6061 7.66422C22.3597 9.42313 18.5013 12.0012 15.2513 15.2513C12.0012 18.5013 9.42313 22.3597 7.66422 26.6061C5.9053 30.8525 5 35.4037 5 40C5 44.5963 5.9053 49.1475 7.66422 53.3939C9.42313 57.6403 12.0012 61.4987 15.2513 64.7487C18.5013 67.9988 22.3597 70.5769 26.6061 72.3358C30.8525 74.0947 35.4037 75 40 75C49.2826 75 58.185 71.3125 64.7487 64.7487C71.3125 58.185 75 49.2826 75 40C75 30.7174 71.3125 21.815 64.7487 15.2513C58.185 8.68749 49.2826 5 40 5ZM40 52.5C40.9946 52.5 41.9484 52.8951 42.6516 53.5984C43.3549 54.3016 43.75 55.2554 43.75 56.25C43.75 57.2446 43.3549 58.1984 42.6516 58.9016C41.9484 59.6049 40.9946 60 40 60C39.0054 60 38.0516 59.6049 37.3484 58.9016C36.6451 58.1984 36.25 57.2446 36.25 56.25C36.25 55.2554 36.6451 54.3016 37.3484 53.5984C38.0516 52.8951 39.0054 52.5 40 52.5V52.5ZM40 20C40.5851 19.9998 41.1518 20.2049 41.6013 20.5794C42.0508 20.954 42.3547 21.4744 42.46 22.05L42.5 22.5V45C42.5012 45.6247 42.2684 46.2272 41.8475 46.6889C41.4266 47.1506 40.8481 47.4379 40.2259 47.4944C39.6037 47.5508 38.983 47.3723 38.4858 46.9939C37.9887 46.6155 37.6513 46.0647 37.54 45.45L37.5 45V22.5C37.5 21.837 37.7634 21.2011 38.2322 20.7322C38.7011 20.2634 39.337 20 40 20Z" fill="white"/>
</svg>
