<svg width="224" height="224" viewBox="0 0 224 224" fill="none" xmlns="http://www.w3.org/2000/svg">
<path d="M112 8C125.657 8 139.181 10.69 151.799 15.9165C164.417 21.143 175.882 28.8036 185.539 38.4609C195.196 48.1182 202.857 59.5831 208.083 72.2009C213.31 84.8188 216 98.3425 216 112C216 125.657 213.31 139.181 208.083 151.799C202.857 164.417 195.196 175.882 185.539 185.539C175.882 195.196 164.417 202.857 151.799 208.083C139.181 213.31 125.657 216 112 216C98.3425 216 84.8187 213.31 72.2009 208.083C59.583 202.857 48.1182 195.196 38.4609 185.539C28.8036 175.882 21.143 164.417 15.9165 151.799C10.69 139.181 7.99999 125.657 8 112C8.00001 98.3425 10.6901 84.8187 15.9166 72.2009C21.143 59.583 28.8036 48.1181 38.4609 38.4609C48.1182 28.8036 59.5831 21.143 72.201 15.9165C84.8188 10.69 98.3426 7.99999 112 8L112 8Z" stroke="#151A20" stroke-width="16" stroke-linecap="round" stroke-linejoin="round"/>
<path d="M86.738 11.1148C110.078 5.27027 134.723 7.69951 156.473 17.9886C178.223 28.2777 195.733 45.79 206.018 67.5416C216.304 89.2933 218.729 113.938 212.881 137.278C207.033 160.617 193.273 181.207 173.946 195.538C154.619 209.87 130.921 217.057 106.889 215.874C82.857 214.692 59.9786 205.213 42.1519 189.053C24.3251 172.894 12.6531 151.053 9.12445 127.252C5.59583 103.451 10.429 79.1632 22.8004 58.5264" stroke="#E80054" stroke-width="16" stroke-linecap="round" stroke-linejoin="round"/>
<path d="M112 28C123.031 28 133.954 30.1727 144.145 34.3941C154.337 38.6155 163.597 44.8029 171.397 52.603C179.197 60.4032 185.384 69.6633 189.606 79.8546C193.827 90.046 196 100.969 196 112C196 123.031 193.827 133.954 189.606 144.145C185.384 154.337 179.197 163.597 171.397 171.397C163.597 179.197 154.337 185.384 144.145 189.606C133.954 193.827 123.031 196 112 196C100.969 196 90.0459 193.827 79.8546 189.606C69.6632 185.384 60.4031 179.197 52.603 171.397C44.8029 163.597 38.6155 154.337 34.3941 144.145C30.1727 133.954 28 123.031 28 112C28 100.969 30.1727 90.0459 34.3941 79.8545C38.6155 69.6632 44.8029 60.4031 52.6031 52.603C60.4032 44.8029 69.6633 38.6155 79.8546 34.3941C90.046 30.1727 100.969 28 112 28L112 28Z" stroke="#151A20" stroke-width="16" stroke-linecap="round" stroke-linejoin="round"/>
<path d="M112 28C128.246 28 144.144 32.7111 157.767 41.5627C171.39 50.4142 182.154 63.0264 188.754 77.8711C195.355 92.7158 197.509 109.156 194.956 125.2C192.403 141.245 185.252 156.204 174.37 168.267C163.488 180.33 149.341 188.978 133.643 193.164C117.945 197.35 101.371 196.894 85.9271 191.851C70.4834 186.808 56.8334 177.396 46.6307 164.753C36.428 152.11 30.1104 136.78 28.4434 120.619" stroke="#FFC300" stroke-width="16" stroke-linecap="round" stroke-linejoin="round"/>
<path d="M112 48C120.405 48 128.727 49.6554 136.492 52.8717C144.257 56.088 151.312 60.8022 157.255 66.7452C163.198 72.6881 167.912 79.7434 171.128 87.5083C174.345 95.2731 176 103.595 176 112C176 120.405 174.345 128.727 171.128 136.492C167.912 144.257 163.198 151.312 157.255 157.255C151.312 163.198 144.257 167.912 136.492 171.128C128.727 174.345 120.405 176 112 176C103.595 176 95.2731 174.345 87.5082 171.128C79.7434 167.912 72.6881 163.198 66.7451 157.255C60.8022 151.312 56.088 144.257 52.8717 136.492C49.6554 128.727 48 120.405 48 112C48 103.595 49.6554 95.2731 52.8717 87.5082C56.088 79.7434 60.8022 72.6881 66.7452 66.7451C72.6881 60.8022 79.7435 56.088 87.5083 52.8717C95.2731 49.6554 103.595 48 112 48L112 48Z" stroke="#151A20" stroke-width="16" stroke-linecap="round" stroke-linejoin="round"/>
<path d="M112 48C121.996 48 131.852 50.3413 140.78 54.8363C149.708 59.3312 157.459 65.8549 163.412 73.8846C169.365 81.9142 173.355 91.2266 175.061 101.076C176.767 110.925 176.142 121.036 173.237 130.6C170.332 140.165 165.228 148.915 158.332 156.152C151.436 163.388 142.941 168.908 133.528 172.271C124.115 175.633 114.045 176.744 104.125 175.514C94.2057 174.284 84.712 170.748 76.4049 165.188" stroke="#00D5FF" stroke-width="16" stroke-linecap="round" stroke-linejoin="round"/>
</svg>
