<svg width="170" height="138" viewBox="0 0 170 138" fill="none" xmlns="http://www.w3.org/2000/svg">
<path d="M53.2048 1.89626C39.0438 3.43568 24.9492 8.72767 14.6272 18.7337C4.30511 28.7398 -1.72729 43.8298 0.881868 58.114C3.49102 72.3981 15.7378 84.8634 29.9653 85.5897C37.5156 85.9696 44.961 83.2677 52.517 83.5619C65.5826 84.0594 76.7744 93.3936 84.7755 103.939C91.6673 113.026 94.2559 122.902 103.582 129.342C120.3 140.882 139.289 138.575 150.558 131.386C154.414 128.904 158.017 124.896 161.073 120.124C169.846 106.402 171.872 89.397 167.623 73.589C161.023 49.0484 145.391 27.074 125.392 14.604C102.155 0.115231 76.4692 -0.633277 53.2048 1.89626Z" fill="url(#paint0_linear_727_250)"/>
<defs>
<linearGradient id="paint0_linear_727_250" x1="86.2179" y1="138.15" x2="83.7822" y2="0.546825" gradientUnits="userSpaceOnUse">
<stop stop-color="#1DCDFE"/>
<stop offset="1" stop-color="#21D0B2"/>
</linearGradient>
</defs>
</svg>
