<?xml version="1.0" encoding="UTF-8"?>
<svg xmlns="http://www.w3.org/2000/svg" version="1.1" width="300" height="300" viewBox="0 0 300 300"><rect x="0" y="0" width="300" height="300" fill="#ffffff"/><g transform="scale(7.317)"><g transform="translate(0,0)"><path fill-rule="evenodd" d="M9 0L9 1L10 1L10 2L9 2L9 3L10 3L10 2L11 2L11 5L12 5L12 8L13 8L13 6L14 6L14 9L15 9L15 10L16 10L16 11L15 11L15 15L16 15L16 11L17 11L17 10L18 10L18 11L19 11L19 10L20 10L20 9L21 9L21 11L20 11L20 12L17 12L17 13L20 13L20 15L19 15L19 16L18 16L18 15L17 15L17 16L18 16L18 19L17 19L17 17L16 17L16 18L15 18L15 17L13 17L13 15L14 15L14 12L13 12L13 11L12 11L12 13L9 13L9 14L8 14L8 13L7 13L7 12L8 12L8 10L9 10L9 12L11 12L11 10L13 10L13 9L11 9L11 10L9 10L9 8L11 8L11 6L10 6L10 7L9 7L9 6L8 6L8 8L6 8L6 9L4 9L4 8L2 8L2 9L0 9L0 11L1 11L1 12L0 12L0 16L3 16L3 17L4 17L4 18L3 18L3 21L4 21L4 22L3 22L3 23L4 23L4 22L5 22L5 23L7 23L7 22L6 22L6 21L8 21L8 23L9 23L9 24L8 24L8 26L9 26L9 25L10 25L10 27L11 27L11 23L12 23L12 24L13 24L13 25L14 25L14 26L12 26L12 27L14 27L14 29L15 29L15 26L17 26L17 25L16 25L16 24L17 24L17 21L18 21L18 22L19 22L19 21L20 21L20 23L19 23L19 24L20 24L20 26L19 26L19 25L18 25L18 26L19 26L19 28L18 28L18 27L16 27L16 29L17 29L17 31L16 31L16 30L12 30L12 29L11 29L11 30L10 30L10 29L8 29L8 30L4 30L4 29L5 29L5 28L4 28L4 27L7 27L7 26L6 26L6 25L7 25L7 24L5 24L5 26L4 26L4 27L3 27L3 26L1 26L1 24L0 24L0 26L1 26L1 27L0 27L0 28L1 28L1 27L3 27L3 28L2 28L2 29L1 29L1 30L0 30L0 31L1 31L1 30L2 30L2 31L3 31L3 32L1 32L1 33L8 33L8 35L9 35L9 34L12 34L12 35L11 35L11 37L14 37L14 35L15 35L15 34L16 34L16 36L15 36L15 37L16 37L16 36L17 36L17 38L16 38L16 40L14 40L14 41L17 41L17 40L18 40L18 41L19 41L19 40L18 40L18 38L20 38L20 37L18 37L18 35L20 35L20 36L21 36L21 37L22 37L22 40L20 40L20 41L22 41L22 40L26 40L26 39L27 39L27 38L29 38L29 39L30 39L30 40L31 40L31 38L29 38L29 37L28 37L28 36L30 36L30 35L31 35L31 36L32 36L32 37L36 37L36 38L35 38L35 39L36 39L36 40L37 40L37 41L38 41L38 40L37 40L37 39L39 39L39 41L40 41L40 39L41 39L41 37L40 37L40 36L41 36L41 35L40 35L40 36L38 36L38 37L37 37L37 35L39 35L39 34L41 34L41 31L40 31L40 30L39 30L39 29L38 29L38 26L39 26L39 28L40 28L40 27L41 27L41 25L40 25L40 24L41 24L41 23L40 23L40 22L41 22L41 21L40 21L40 20L41 20L41 19L40 19L40 17L41 17L41 13L40 13L40 12L41 12L41 11L40 11L40 10L41 10L41 9L38 9L38 11L39 11L39 12L37 12L37 13L38 13L38 14L39 14L39 15L40 15L40 16L39 16L39 18L38 18L38 19L37 19L37 18L36 18L36 19L35 19L35 20L34 20L34 22L33 22L33 19L34 19L34 18L33 18L33 16L35 16L35 15L33 15L33 12L32 12L32 11L31 11L31 10L32 10L32 9L33 9L33 11L35 11L35 12L34 12L34 13L35 13L35 14L36 14L36 11L37 11L37 8L36 8L36 11L35 11L35 8L33 8L33 5L32 5L32 4L33 4L33 3L32 3L32 4L31 4L31 6L30 6L30 4L29 4L29 3L30 3L30 2L31 2L31 1L33 1L33 0L29 0L29 1L28 1L28 2L29 2L29 3L27 3L27 0L26 0L26 2L24 2L24 0L21 0L21 2L20 2L20 3L21 3L21 4L22 4L22 3L23 3L23 5L24 5L24 7L23 7L23 6L22 6L22 5L20 5L20 4L19 4L19 1L18 1L18 0L17 0L17 1L16 1L16 2L15 2L15 3L16 3L16 4L17 4L17 3L18 3L18 8L19 8L19 9L17 9L17 8L15 8L15 6L14 6L14 5L13 5L13 4L14 4L14 2L13 2L13 4L12 4L12 2L11 2L11 1L12 1L12 0ZM14 0L14 1L15 1L15 0ZM17 1L17 2L16 2L16 3L17 3L17 2L18 2L18 1ZM22 1L22 2L21 2L21 3L22 3L22 2L23 2L23 1ZM29 1L29 2L30 2L30 1ZM25 3L25 4L24 4L24 5L25 5L25 7L24 7L24 8L23 8L23 9L27 9L27 10L26 10L26 11L24 11L24 13L23 13L23 14L24 14L24 15L23 15L23 17L21 17L21 16L22 16L22 15L21 15L21 16L20 16L20 17L21 17L21 18L23 18L23 19L24 19L24 21L22 21L22 22L21 22L21 23L22 23L22 24L25 24L25 25L23 25L23 26L22 26L22 25L21 25L21 27L22 27L22 28L20 28L20 29L18 29L18 30L19 30L19 31L20 31L20 32L18 32L18 33L17 33L17 34L18 34L18 33L20 33L20 34L21 34L21 32L22 32L22 33L23 33L23 32L24 32L24 34L25 34L25 35L24 35L24 37L25 37L25 38L23 38L23 39L25 39L25 38L27 38L27 37L25 37L25 35L26 35L26 36L27 36L27 35L28 35L28 32L29 32L29 31L30 31L30 32L31 32L31 33L32 33L32 32L33 32L33 31L34 31L34 30L32 30L32 32L31 32L31 31L30 31L30 30L31 30L31 29L30 29L30 28L31 28L31 25L29 25L29 24L30 24L30 22L31 22L31 24L32 24L32 23L33 23L33 22L31 22L31 20L29 20L29 24L25 24L25 23L28 23L28 20L27 20L27 17L25 17L25 16L24 16L24 15L25 15L25 14L26 14L26 15L27 15L27 16L28 16L28 19L30 19L30 17L31 17L31 19L33 19L33 18L32 18L32 16L33 16L33 15L31 15L31 14L32 14L32 12L31 12L31 11L29 11L29 10L31 10L31 7L32 7L32 6L31 6L31 7L30 7L30 6L29 6L29 5L27 5L27 3ZM8 4L8 5L9 5L9 4ZM19 5L19 7L20 7L20 5ZM26 5L26 7L25 7L25 8L27 8L27 5ZM16 6L16 7L17 7L17 6ZM21 6L21 9L22 9L22 6ZM28 6L28 8L29 8L29 9L30 9L30 7L29 7L29 6ZM6 9L6 10L4 10L4 11L6 11L6 12L5 12L5 14L7 14L7 15L6 15L6 16L8 16L8 14L7 14L7 13L6 13L6 12L7 12L7 11L6 11L6 10L7 10L7 9ZM1 10L1 11L2 11L2 13L3 13L3 14L1 14L1 15L4 15L4 13L3 13L3 11L2 11L2 10ZM22 10L22 11L23 11L23 10ZM26 11L26 12L25 12L25 13L24 13L24 14L25 14L25 13L26 13L26 14L27 14L27 15L28 15L28 16L29 16L29 15L30 15L30 12L29 12L29 13L28 13L28 14L27 14L27 12L28 12L28 11ZM20 12L20 13L21 13L21 14L22 14L22 13L21 13L21 12ZM12 13L12 14L11 14L11 15L10 15L10 17L5 17L5 18L4 18L4 20L5 20L5 21L6 21L6 20L9 20L9 23L11 23L11 20L13 20L13 21L12 21L12 23L13 23L13 24L14 24L14 25L15 25L15 24L16 24L16 23L13 23L13 21L14 21L14 22L16 22L16 21L17 21L17 20L16 20L16 21L14 21L14 19L12 19L12 18L13 18L13 17L12 17L12 18L11 18L11 15L12 15L12 14L13 14L13 13ZM36 15L36 17L38 17L38 16L37 16L37 15ZM1 17L1 18L0 18L0 19L1 19L1 18L2 18L2 17ZM23 17L23 18L25 18L25 17ZM5 18L5 19L8 19L8 18ZM10 18L10 19L9 19L9 20L10 20L10 19L11 19L11 18ZM19 18L19 19L18 19L18 21L19 21L19 20L20 20L20 21L21 21L21 20L22 20L22 19L21 19L21 20L20 20L20 18ZM25 19L25 20L26 20L26 19ZM36 19L36 20L35 20L35 23L34 23L34 25L35 25L35 26L36 26L36 27L37 27L37 25L38 25L38 24L40 24L40 23L39 23L39 21L37 21L37 19ZM39 19L39 20L40 20L40 19ZM0 20L0 23L2 23L2 22L1 22L1 20ZM24 21L24 22L22 22L22 23L24 23L24 22L25 22L25 21ZM26 21L26 22L27 22L27 21ZM36 21L36 22L37 22L37 21ZM36 23L36 24L35 24L35 25L36 25L36 24L37 24L37 23ZM2 24L2 25L4 25L4 24ZM26 25L26 27L27 27L27 28L28 28L28 30L27 30L27 29L26 29L26 28L25 28L25 27L24 27L24 26L23 26L23 29L21 29L21 30L22 30L22 32L23 32L23 30L25 30L25 29L26 29L26 32L25 32L25 33L26 33L26 35L27 35L27 31L29 31L29 28L28 28L28 27L29 27L29 26L28 26L28 25ZM39 25L39 26L40 26L40 25ZM27 26L27 27L28 27L28 26ZM33 26L33 29L35 29L35 31L36 31L36 30L37 30L37 34L38 34L38 30L37 30L37 29L36 29L36 28L35 28L35 27L34 27L34 26ZM8 27L8 28L9 28L9 27ZM6 28L6 29L7 29L7 28ZM24 28L24 29L25 29L25 28ZM2 29L2 30L3 30L3 29ZM8 30L8 31L6 31L6 32L8 32L8 33L9 33L9 32L10 32L10 33L12 33L12 32L13 32L13 33L14 33L14 32L15 32L15 33L16 33L16 32L15 32L15 31L12 31L12 30L11 30L11 31L9 31L9 30ZM4 31L4 32L5 32L5 31ZM8 31L8 32L9 32L9 31ZM11 31L11 32L12 32L12 31ZM39 31L39 33L40 33L40 31ZM33 33L33 36L36 36L36 33ZM13 34L13 35L12 35L12 36L13 36L13 35L14 35L14 34ZM22 34L22 35L21 35L21 36L22 36L22 35L23 35L23 34ZM29 34L29 35L30 35L30 34ZM34 34L34 35L35 35L35 34ZM9 36L9 37L8 37L8 39L10 39L10 40L12 40L12 41L13 41L13 39L14 39L14 38L12 38L12 39L11 39L11 38L9 38L9 37L10 37L10 36ZM36 38L36 39L37 39L37 38ZM39 38L39 39L40 39L40 38ZM32 39L32 41L33 41L33 40L34 40L34 39ZM28 40L28 41L29 41L29 40ZM0 0L0 7L7 7L7 0ZM1 1L1 6L6 6L6 1ZM2 2L2 5L5 5L5 2ZM34 0L34 7L41 7L41 0ZM35 1L35 6L40 6L40 1ZM36 2L36 5L39 5L39 2ZM0 34L0 41L7 41L7 34ZM1 35L1 40L6 40L6 35ZM2 36L2 39L5 39L5 36Z" fill="#000000"/></g></g></svg>
