<?xml version="1.0" encoding="UTF-8"?>
<svg xmlns="http://www.w3.org/2000/svg" version="1.1" width="300" height="300" viewBox="0 0 300 300"><rect x="0" y="0" width="300" height="300" fill="#ffffff"/><g transform="scale(7.317)"><g transform="translate(0,0)"><path fill-rule="evenodd" d="M8 0L8 3L9 3L9 2L10 2L10 4L9 4L9 5L8 5L8 9L7 9L7 8L6 8L6 9L7 9L7 10L5 10L5 11L4 11L4 9L5 9L5 8L2 8L2 9L1 9L1 10L2 10L2 9L3 9L3 11L1 11L1 12L0 12L0 13L3 13L3 15L2 15L2 14L1 14L1 15L0 15L0 20L1 20L1 21L0 21L0 22L1 22L1 21L2 21L2 20L3 20L3 19L4 19L4 17L5 17L5 16L6 16L6 17L7 17L7 18L5 18L5 20L6 20L6 21L5 21L5 22L4 22L4 21L3 21L3 23L2 23L2 24L1 24L1 23L0 23L0 27L2 27L2 26L4 26L4 24L5 24L5 25L9 25L9 27L10 27L10 26L13 26L13 25L14 25L14 22L15 22L15 21L16 21L16 23L15 23L15 25L16 25L16 26L14 26L14 28L15 28L15 29L17 29L17 28L18 28L18 27L19 27L19 29L18 29L18 30L17 30L17 32L18 32L18 34L20 34L20 33L21 33L21 30L22 30L22 27L23 27L23 28L24 28L24 29L23 29L23 30L24 30L24 31L23 31L23 32L22 32L22 33L23 33L23 34L22 34L22 35L20 35L20 36L19 36L19 38L17 38L17 39L16 39L16 37L15 37L15 39L16 39L16 41L18 41L18 39L20 39L20 38L21 38L21 39L22 39L22 40L23 40L23 41L25 41L25 40L26 40L26 41L31 41L31 39L32 39L32 40L33 40L33 41L34 41L34 39L36 39L36 40L35 40L35 41L39 41L39 40L40 40L40 38L41 38L41 37L40 37L40 34L41 34L41 33L40 33L40 32L41 32L41 31L40 31L40 30L41 30L41 29L40 29L40 28L41 28L41 27L40 27L40 26L41 26L41 25L40 25L40 23L39 23L39 22L41 22L41 19L40 19L40 18L41 18L41 15L40 15L40 18L38 18L38 17L39 17L39 16L37 16L37 15L38 15L38 14L37 14L37 13L39 13L39 12L38 12L38 11L36 11L36 10L37 10L37 9L36 9L36 8L32 8L32 7L33 7L33 3L32 3L32 2L33 2L33 0L28 0L28 1L27 1L27 2L26 2L26 3L27 3L27 4L26 4L26 5L25 5L25 1L24 1L24 0L23 0L23 2L21 2L21 1L20 1L20 0L18 0L18 1L17 1L17 3L16 3L16 2L15 2L15 1L14 1L14 0L13 0L13 1L12 1L12 3L11 3L11 2L10 2L10 1L11 1L11 0L10 0L10 1L9 1L9 0ZM19 1L19 2L20 2L20 1ZM28 1L28 2L27 2L27 3L28 3L28 2L29 2L29 1ZM30 1L30 2L32 2L32 1ZM13 2L13 3L12 3L12 4L10 4L10 5L11 5L11 7L12 7L12 8L11 8L11 9L8 9L8 10L7 10L7 11L6 11L6 12L7 12L7 13L5 13L5 14L4 14L4 15L5 15L5 14L7 14L7 13L11 13L11 14L9 14L9 15L10 15L10 16L8 16L8 15L6 15L6 16L8 16L8 19L6 19L6 20L7 20L7 21L6 21L6 22L5 22L5 24L7 24L7 23L8 23L8 24L11 24L11 25L13 25L13 23L12 23L12 22L13 22L13 20L14 20L14 19L13 19L13 18L15 18L15 17L16 17L16 18L18 18L18 17L16 17L16 15L17 15L17 12L18 12L18 11L20 11L20 10L21 10L21 12L20 12L20 13L19 13L19 14L20 14L20 15L19 15L19 16L22 16L22 17L23 17L23 19L22 19L22 18L21 18L21 17L19 17L19 18L20 18L20 19L22 19L22 20L20 20L20 21L19 21L19 24L18 24L18 23L16 23L16 25L18 25L18 26L17 26L17 27L18 27L18 26L19 26L19 27L20 27L20 26L21 26L21 25L20 25L20 23L21 23L21 24L22 24L22 23L21 23L21 22L20 22L20 21L23 21L23 24L24 24L24 20L25 20L25 26L28 26L28 28L30 28L30 29L28 29L28 30L30 30L30 29L31 29L31 30L32 30L32 31L33 31L33 32L34 32L34 30L35 30L35 32L39 32L39 31L38 31L38 29L37 29L37 28L36 28L36 29L35 29L35 26L34 26L34 25L35 25L35 24L36 24L36 25L37 25L37 24L39 24L39 23L38 23L38 22L39 22L39 21L40 21L40 20L39 20L39 19L38 19L38 18L37 18L37 19L38 19L38 20L37 20L37 21L38 21L38 22L37 22L37 23L36 23L36 17L37 17L37 16L36 16L36 13L37 13L37 12L36 12L36 13L34 13L34 12L33 12L33 11L34 11L34 10L33 10L33 9L32 9L32 8L31 8L31 9L27 9L27 7L28 7L28 6L27 6L27 7L26 7L26 6L25 6L25 5L24 5L24 4L23 4L23 3L24 3L24 2L23 2L23 3L20 3L20 4L23 4L23 8L22 8L22 9L24 9L24 6L25 6L25 7L26 7L26 9L27 9L27 10L28 10L28 11L27 11L27 13L25 13L25 15L23 15L23 14L22 14L22 15L21 15L21 14L20 14L20 13L21 13L21 12L23 12L23 11L25 11L25 10L21 10L21 9L20 9L20 8L21 8L21 7L22 7L22 5L21 5L21 7L20 7L20 6L19 6L19 5L17 5L17 4L16 4L16 3L15 3L15 4L13 4L13 3L14 3L14 2ZM18 3L18 4L19 4L19 3ZM29 3L29 5L30 5L30 4L32 4L32 3ZM15 4L15 6L14 6L14 7L15 7L15 8L12 8L12 9L11 9L11 10L10 10L10 11L13 11L13 12L12 12L12 14L11 14L11 17L10 17L10 19L8 19L8 21L7 21L7 22L6 22L6 23L7 23L7 22L8 22L8 21L9 21L9 20L10 20L10 22L9 22L9 23L10 23L10 22L12 22L12 21L11 21L11 20L12 20L12 18L13 18L13 16L14 16L14 17L15 17L15 16L14 16L14 14L15 14L15 15L16 15L16 14L15 14L15 13L16 13L16 12L17 12L17 11L18 11L18 10L20 10L20 9L19 9L19 8L20 8L20 7L19 7L19 6L18 6L18 7L17 7L17 5L16 5L16 4ZM27 4L27 5L28 5L28 4ZM31 5L31 7L32 7L32 5ZM9 6L9 8L10 8L10 6ZM12 6L12 7L13 7L13 6ZM15 6L15 7L16 7L16 8L15 8L15 9L13 9L13 11L14 11L14 13L15 13L15 12L16 12L16 11L14 11L14 10L15 10L15 9L18 9L18 8L19 8L19 7L18 7L18 8L17 8L17 7L16 7L16 6ZM29 6L29 8L30 8L30 6ZM38 8L38 10L41 10L41 8ZM31 9L31 10L32 10L32 11L33 11L33 10L32 10L32 9ZM35 9L35 10L36 10L36 9ZM8 10L8 11L9 11L9 10ZM28 11L28 12L29 12L29 13L27 13L27 14L29 14L29 13L30 13L30 14L31 14L31 13L30 13L30 12L31 12L31 11L30 11L30 12L29 12L29 11ZM40 11L40 12L41 12L41 11ZM32 12L32 13L33 13L33 14L32 14L32 15L33 15L33 17L31 17L31 15L30 15L30 16L29 16L29 15L28 15L28 17L31 17L31 18L30 18L30 19L31 19L31 20L30 20L30 21L31 21L31 22L32 22L32 23L31 23L31 24L29 24L29 26L30 26L30 27L31 27L31 29L32 29L32 30L33 30L33 29L34 29L34 28L33 28L33 27L34 27L34 26L32 26L32 25L34 25L34 24L35 24L35 21L34 21L34 18L35 18L35 17L36 17L36 16L35 16L35 14L34 14L34 13L33 13L33 12ZM40 13L40 14L41 14L41 13ZM22 15L22 16L23 16L23 15ZM1 16L1 20L2 20L2 19L3 19L3 17L4 17L4 16L3 16L3 17L2 17L2 16ZM34 16L34 17L35 17L35 16ZM11 17L11 18L12 18L12 17ZM24 17L24 18L25 18L25 20L26 20L26 24L27 24L27 23L30 23L30 22L29 22L29 21L28 21L28 20L27 20L27 19L28 19L28 18L27 18L27 19L26 19L26 18L25 18L25 17ZM31 18L31 19L32 19L32 20L31 20L31 21L32 21L32 20L33 20L33 18ZM10 19L10 20L11 20L11 19ZM15 19L15 20L16 20L16 19ZM17 19L17 20L18 20L18 19ZM23 19L23 20L24 20L24 19ZM38 20L38 21L39 21L39 20ZM17 21L17 22L18 22L18 21ZM27 21L27 22L28 22L28 21ZM33 21L33 24L34 24L34 21ZM3 23L3 24L4 24L4 23ZM1 25L1 26L2 26L2 25ZM38 25L38 26L37 26L37 27L38 27L38 28L39 28L39 26L40 26L40 25ZM6 26L6 27L7 27L7 26ZM31 26L31 27L32 27L32 26ZM3 27L3 28L4 28L4 30L2 30L2 33L3 33L3 31L8 31L8 30L14 30L14 31L13 31L13 32L14 32L14 33L13 33L13 34L12 34L12 33L11 33L11 32L12 32L12 31L11 31L11 32L9 32L9 33L8 33L8 34L12 34L12 35L13 35L13 34L15 34L15 33L16 33L16 31L15 31L15 30L14 30L14 29L12 29L12 28L11 28L11 29L10 29L10 28L5 28L5 27ZM15 27L15 28L16 28L16 27ZM25 27L25 28L27 28L27 27ZM0 28L0 33L1 33L1 29L2 29L2 28ZM32 28L32 29L33 29L33 28ZM6 29L6 30L7 30L7 29ZM24 29L24 30L25 30L25 32L23 32L23 33L25 33L25 32L26 32L26 33L27 33L27 34L28 34L28 35L29 35L29 33L27 33L27 32L26 32L26 31L27 31L27 30L25 30L25 29ZM36 29L36 31L37 31L37 29ZM18 30L18 32L20 32L20 31L19 31L19 30ZM14 31L14 32L15 32L15 31ZM28 31L28 32L30 32L30 31ZM5 32L5 33L7 33L7 32ZM30 33L30 35L31 35L31 36L28 36L28 37L27 37L27 35L26 35L26 34L24 34L24 35L23 35L23 36L22 36L22 39L24 39L24 38L25 38L25 39L26 39L26 40L30 40L30 39L31 39L31 38L32 38L32 39L33 39L33 38L32 38L32 35L31 35L31 33ZM33 33L33 36L36 36L36 33ZM37 33L37 34L38 34L38 36L37 36L37 37L36 37L36 38L37 38L37 37L38 37L38 38L40 38L40 37L38 37L38 36L39 36L39 34L38 34L38 33ZM34 34L34 35L35 35L35 34ZM16 35L16 36L17 36L17 35ZM8 36L8 39L9 39L9 38L10 38L10 37L9 37L9 36ZM12 36L12 37L11 37L11 38L13 38L13 37L14 37L14 36ZM20 36L20 37L21 37L21 36ZM25 36L25 37L26 37L26 36ZM28 37L28 38L26 38L26 39L30 39L30 38L31 38L31 37ZM34 37L34 38L35 38L35 37ZM10 39L10 40L9 40L9 41L10 41L10 40L11 40L11 41L12 41L12 40L13 40L13 39ZM37 39L37 40L39 40L39 39ZM0 0L0 7L7 7L7 0ZM1 1L1 6L6 6L6 1ZM2 2L2 5L5 5L5 2ZM34 0L34 7L41 7L41 0ZM35 1L35 6L40 6L40 1ZM36 2L36 5L39 5L39 2ZM0 34L0 41L7 41L7 34ZM1 35L1 40L6 40L6 35ZM2 36L2 39L5 39L5 36Z" fill="#000000"/></g></g></svg>
