<?xml version="1.0" encoding="UTF-8"?>
<svg xmlns="http://www.w3.org/2000/svg" version="1.1" width="300" height="300" viewBox="0 0 300 300"><rect x="0" y="0" width="300" height="300" fill="#ffffff"/><g transform="scale(7.317)"><g transform="translate(0,0)"><path fill-rule="evenodd" d="M8 0L8 3L9 3L9 2L10 2L10 1L9 1L9 0ZM15 0L15 2L14 2L14 1L13 1L13 3L14 3L14 4L17 4L17 5L16 5L16 7L15 7L15 6L14 6L14 8L11 8L11 5L8 5L8 10L9 10L9 9L10 9L10 10L11 10L11 11L12 11L12 12L11 12L11 13L10 13L10 11L7 11L7 10L5 10L5 11L4 11L4 12L3 12L3 13L1 13L1 12L2 12L2 11L1 11L1 10L3 10L3 9L5 9L5 8L2 8L2 9L1 9L1 10L0 10L0 14L1 14L1 15L0 15L0 16L1 16L1 17L0 17L0 18L2 18L2 19L0 19L0 20L1 20L1 24L2 24L2 23L3 23L3 25L2 25L2 26L1 26L1 27L0 27L0 33L1 33L1 30L5 30L5 31L4 31L4 32L5 32L5 33L7 33L7 32L6 32L6 31L11 31L11 30L12 30L12 28L13 28L13 27L14 27L14 26L15 26L15 27L16 27L16 28L17 28L17 31L15 31L15 32L14 32L14 30L15 30L15 28L14 28L14 30L13 30L13 31L12 31L12 32L11 32L11 34L12 34L12 35L11 35L11 36L10 36L10 35L9 35L9 36L8 36L8 39L9 39L9 40L11 40L11 41L13 41L13 40L11 40L11 38L12 38L12 37L11 37L11 36L13 36L13 37L14 37L14 38L13 38L13 39L14 39L14 38L15 38L15 36L13 36L13 33L12 33L12 32L14 32L14 35L15 35L15 32L16 32L16 33L17 33L17 32L18 32L18 34L19 34L19 35L18 35L18 36L19 36L19 37L17 37L17 34L16 34L16 37L17 37L17 38L18 38L18 39L16 39L16 41L17 41L17 40L18 40L18 39L19 39L19 40L22 40L22 41L24 41L24 40L22 40L22 39L26 39L26 41L28 41L28 40L27 40L27 39L29 39L29 37L28 37L28 36L31 36L31 35L32 35L32 38L31 38L31 37L30 37L30 39L32 39L32 40L33 40L33 41L34 41L34 39L36 39L36 40L35 40L35 41L39 41L39 40L40 40L40 38L41 38L41 35L40 35L40 38L39 38L39 40L37 40L37 38L38 38L38 37L39 37L39 36L38 36L38 34L39 34L39 33L40 33L40 34L41 34L41 33L40 33L40 32L41 32L41 31L40 31L40 30L41 30L41 29L40 29L40 28L38 28L38 27L37 27L37 26L38 26L38 25L40 25L40 26L39 26L39 27L40 27L40 26L41 26L41 25L40 25L40 23L39 23L39 24L38 24L38 23L35 23L35 21L34 21L34 18L35 18L35 17L36 17L36 22L37 22L37 20L38 20L38 21L39 21L39 22L41 22L41 21L40 21L40 20L41 20L41 19L40 19L40 20L38 20L38 19L39 19L39 18L38 18L38 17L39 17L39 16L37 16L37 14L38 14L38 13L40 13L40 14L41 14L41 13L40 13L40 10L41 10L41 8L38 8L38 10L39 10L39 12L38 12L38 11L36 11L36 10L37 10L37 9L36 9L36 8L33 8L33 9L30 9L30 8L29 8L29 6L30 6L30 7L31 7L31 8L32 8L32 7L33 7L33 3L32 3L32 2L33 2L33 0L29 0L29 1L27 1L27 0L26 0L26 1L27 1L27 2L26 2L26 3L27 3L27 4L26 4L26 5L25 5L25 4L24 4L24 7L23 7L23 6L22 6L22 7L21 7L21 5L22 5L22 4L19 4L19 3L21 3L21 0ZM23 0L23 2L22 2L22 3L23 3L23 2L25 2L25 1L24 1L24 0ZM11 1L11 2L12 2L12 1ZM17 1L17 2L15 2L15 3L17 3L17 2L18 2L18 3L19 3L19 1ZM30 1L30 2L32 2L32 1ZM27 2L27 3L29 3L29 4L32 4L32 3L29 3L29 2ZM10 3L10 4L11 4L11 3ZM27 4L27 5L28 5L28 4ZM12 5L12 7L13 7L13 5ZM17 5L17 7L16 7L16 8L15 8L15 9L11 9L11 8L10 8L10 6L9 6L9 8L10 8L10 9L11 9L11 10L15 10L15 11L14 11L14 12L15 12L15 14L13 14L13 13L12 13L12 14L11 14L11 15L9 15L9 13L8 13L8 14L7 14L7 13L6 13L6 12L7 12L7 11L6 11L6 12L5 12L5 13L4 13L4 14L3 14L3 15L4 15L4 16L3 16L3 17L5 17L5 19L6 19L6 20L5 20L5 22L4 22L4 19L3 19L3 21L2 21L2 22L3 22L3 23L5 23L5 25L6 25L6 26L7 26L7 27L4 27L4 26L3 26L3 27L1 27L1 29L2 29L2 28L3 28L3 27L4 27L4 28L8 28L8 29L6 29L6 30L10 30L10 28L9 28L9 26L10 26L10 27L12 27L12 24L13 24L13 26L14 26L14 25L15 25L15 23L16 23L16 24L18 24L18 23L19 23L19 24L20 24L20 28L21 28L21 27L22 27L22 26L23 26L23 28L22 28L22 29L26 29L26 30L25 30L25 31L24 31L24 30L21 30L21 29L18 29L18 31L20 31L20 34L22 34L22 35L19 35L19 36L21 36L21 37L19 37L19 38L20 38L20 39L22 39L22 37L24 37L24 38L25 38L25 37L27 37L27 38L26 38L26 39L27 39L27 38L28 38L28 37L27 37L27 36L28 36L28 35L29 35L29 33L27 33L27 32L26 32L26 31L27 31L27 29L28 29L28 30L29 30L29 31L28 31L28 32L30 32L30 33L31 33L31 31L30 31L30 30L29 30L29 29L28 29L28 28L27 28L27 27L26 27L26 26L28 26L28 27L29 27L29 28L30 28L30 29L31 29L31 30L32 30L32 31L33 31L33 32L34 32L34 30L35 30L35 32L39 32L39 31L38 31L38 29L37 29L37 28L36 28L36 29L35 29L35 26L34 26L34 25L35 25L35 24L34 24L34 21L33 21L33 24L32 24L32 25L33 25L33 26L34 26L34 27L33 27L33 28L32 28L32 29L31 29L31 27L32 27L32 26L31 26L31 27L30 27L30 26L28 26L28 25L29 25L29 24L30 24L30 25L31 25L31 23L32 23L32 22L31 22L31 21L32 21L32 20L33 20L33 18L31 18L31 17L33 17L33 15L32 15L32 14L33 14L33 13L34 13L34 14L35 14L35 16L34 16L34 17L35 17L35 16L36 16L36 17L37 17L37 16L36 16L36 13L37 13L37 12L36 12L36 13L34 13L34 12L33 12L33 13L31 13L31 12L32 12L32 11L34 11L34 10L30 10L30 9L29 9L29 8L28 8L28 9L27 9L27 7L28 7L28 6L27 6L27 7L26 7L26 6L25 6L25 8L24 8L24 9L26 9L26 11L25 11L25 14L24 14L24 15L23 15L23 12L24 12L24 11L23 11L23 12L22 12L22 9L20 9L20 8L19 8L19 9L18 9L18 12L17 12L17 10L16 10L16 8L17 8L17 7L18 7L18 5ZM19 5L19 7L20 7L20 5ZM30 5L30 6L31 6L31 7L32 7L32 5ZM6 8L6 9L7 9L7 8ZM19 9L19 10L20 10L20 9ZM28 9L28 10L27 10L27 12L26 12L26 14L29 14L29 13L30 13L30 14L31 14L31 13L30 13L30 12L31 12L31 11L30 11L30 12L29 12L29 13L27 13L27 12L28 12L28 10L29 10L29 9ZM35 9L35 10L36 10L36 9ZM39 9L39 10L40 10L40 9ZM19 11L19 12L18 12L18 13L21 13L21 14L22 14L22 12L21 12L21 11ZM16 12L16 13L17 13L17 12ZM5 13L5 15L7 15L7 14L6 14L6 13ZM12 14L12 16L11 16L11 17L9 17L9 16L6 16L6 17L7 17L7 18L6 18L6 19L7 19L7 18L10 18L10 19L9 19L9 20L11 20L11 23L10 23L10 22L9 22L9 21L8 21L8 20L6 20L6 21L8 21L8 23L9 23L9 24L8 24L8 25L7 25L7 24L6 24L6 25L7 25L7 26L9 26L9 24L11 24L11 23L12 23L12 21L13 21L13 22L14 22L14 21L13 21L13 19L14 19L14 20L16 20L16 21L15 21L15 22L17 22L17 23L18 23L18 22L19 22L19 21L21 21L21 23L22 23L22 25L23 25L23 26L24 26L24 28L25 28L25 26L26 26L26 25L25 25L25 24L26 24L26 23L25 23L25 22L24 22L24 21L23 21L23 20L22 20L22 19L21 19L21 18L23 18L23 19L24 19L24 17L25 17L25 21L26 21L26 22L27 22L27 23L31 23L31 22L29 22L29 21L28 21L28 18L29 18L29 17L31 17L31 16L29 16L29 15L28 15L28 16L29 16L29 17L28 17L28 18L27 18L27 15L24 15L24 16L23 16L23 17L22 17L22 16L19 16L19 17L21 17L21 18L20 18L20 19L19 19L19 18L18 18L18 19L17 19L17 18L16 18L16 17L15 17L15 15L16 15L16 16L17 16L17 17L18 17L18 14L15 14L15 15L14 15L14 18L13 18L13 19L12 19L12 20L11 20L11 17L12 17L12 16L13 16L13 14ZM1 15L1 16L2 16L2 15ZM40 15L40 18L41 18L41 15ZM15 18L15 19L16 19L16 20L17 20L17 19L16 19L16 18ZM26 18L26 21L27 21L27 22L28 22L28 21L27 21L27 18ZM30 18L30 19L31 19L31 20L30 20L30 21L31 21L31 20L32 20L32 19L31 19L31 18ZM37 18L37 19L38 19L38 18ZM18 20L18 21L17 21L17 22L18 22L18 21L19 21L19 20ZM6 22L6 23L7 23L7 22ZM13 23L13 24L14 24L14 23ZM33 24L33 25L34 25L34 24ZM36 24L36 25L38 25L38 24ZM10 25L10 26L11 26L11 25ZM16 26L16 27L17 27L17 26ZM18 27L18 28L19 28L19 27ZM26 28L26 29L27 29L27 28ZM33 28L33 29L32 29L32 30L33 30L33 29L34 29L34 28ZM36 29L36 31L37 31L37 29ZM20 30L20 31L21 31L21 30ZM2 31L2 33L3 33L3 31ZM22 31L22 32L21 32L21 33L22 33L22 34L24 34L24 35L26 35L26 34L27 34L27 35L28 35L28 34L27 34L27 33L26 33L26 32L23 32L23 31ZM8 33L8 34L10 34L10 33ZM33 33L33 36L36 36L36 33ZM37 33L37 34L38 34L38 33ZM30 34L30 35L31 35L31 34ZM34 34L34 35L35 35L35 34ZM22 35L22 36L23 36L23 35ZM37 36L37 37L36 37L36 38L37 38L37 37L38 37L38 36ZM9 37L9 38L10 38L10 37ZM34 37L34 38L35 38L35 37ZM32 38L32 39L33 39L33 38ZM14 40L14 41L15 41L15 40ZM29 40L29 41L30 41L30 40ZM0 0L0 7L7 7L7 0ZM1 1L1 6L6 6L6 1ZM2 2L2 5L5 5L5 2ZM34 0L34 7L41 7L41 0ZM35 1L35 6L40 6L40 1ZM36 2L36 5L39 5L39 2ZM0 34L0 41L7 41L7 34ZM1 35L1 40L6 40L6 35ZM2 36L2 39L5 39L5 36Z" fill="#000000"/></g></g></svg>
