<?xml version="1.0" encoding="UTF-8"?>
<svg xmlns="http://www.w3.org/2000/svg" version="1.1" width="300" height="300" viewBox="0 0 300 300"><rect x="0" y="0" width="300" height="300" fill="#ffffff"/><g transform="scale(7.317)"><g transform="translate(0,0)"><path fill-rule="evenodd" d="M10 0L10 1L8 1L8 2L9 2L9 3L10 3L10 4L9 4L9 5L8 5L8 8L4 8L4 9L7 9L7 10L3 10L3 9L2 9L2 10L0 10L0 11L2 11L2 12L3 12L3 11L4 11L4 12L5 12L5 13L8 13L8 14L9 14L9 16L10 16L10 15L12 15L12 16L15 16L15 19L14 19L14 20L15 20L15 21L16 21L16 23L15 23L15 24L14 24L14 23L13 23L13 22L12 22L12 21L13 21L13 20L11 20L11 19L13 19L13 18L14 18L14 17L13 17L13 18L11 18L11 19L10 19L10 17L9 17L9 19L10 19L10 21L9 21L9 20L8 20L8 21L9 21L9 22L5 22L5 20L4 20L4 22L2 22L2 23L4 23L4 24L2 24L2 25L3 25L3 26L1 26L1 27L2 27L2 28L0 28L0 30L1 30L1 29L2 29L2 28L3 28L3 26L4 26L4 27L5 27L5 28L4 28L4 31L5 31L5 28L6 28L6 29L7 29L7 30L6 30L6 31L10 31L10 32L5 32L5 33L8 33L8 37L9 37L9 41L10 41L10 37L9 37L9 36L11 36L11 41L14 41L14 40L13 40L13 39L14 39L14 37L15 37L15 38L16 38L16 39L18 39L18 40L19 40L19 41L24 41L24 40L25 40L25 41L26 41L26 40L27 40L27 39L28 39L28 40L29 40L29 41L30 41L30 40L31 40L31 41L33 41L33 40L35 40L35 41L38 41L38 39L37 39L37 40L36 40L36 39L34 39L34 38L33 38L33 39L32 39L32 37L35 37L35 38L36 38L36 37L38 37L38 38L39 38L39 41L40 41L40 40L41 40L41 36L39 36L39 37L38 37L38 33L37 33L37 31L36 31L36 30L38 30L38 31L39 31L39 32L40 32L40 31L41 31L41 29L40 29L40 30L38 30L38 29L36 29L36 28L35 28L35 26L37 26L37 25L38 25L38 26L39 26L39 27L41 27L41 25L38 25L38 22L39 22L39 21L38 21L38 19L39 19L39 18L40 18L40 19L41 19L41 16L39 16L39 17L38 17L38 19L37 19L37 20L36 20L36 18L37 18L37 17L36 17L36 14L37 14L37 13L36 13L36 12L34 12L34 11L32 11L32 12L33 12L33 13L30 13L30 11L31 11L31 9L33 9L33 8L32 8L32 7L33 7L33 6L32 6L32 5L31 5L31 3L32 3L32 4L33 4L33 3L32 3L32 1L31 1L31 0L25 0L25 1L23 1L23 2L22 2L22 3L23 3L23 4L24 4L24 7L25 7L25 5L26 5L26 4L25 4L25 2L26 2L26 3L27 3L27 5L28 5L28 7L27 7L27 6L26 6L26 7L27 7L27 8L25 8L25 9L24 9L24 8L22 8L22 7L23 7L23 6L22 6L22 5L21 5L21 6L20 6L20 5L19 5L19 4L18 4L18 3L17 3L17 2L18 2L18 1L19 1L19 2L20 2L20 3L21 3L21 2L20 2L20 0L18 0L18 1L17 1L17 0L15 0L15 1L14 1L14 0L13 0L13 1L12 1L12 2L14 2L14 3L12 3L12 4L13 4L13 5L12 5L12 7L11 7L11 3L10 3L10 2L11 2L11 0ZM21 0L21 1L22 1L22 0ZM16 1L16 2L15 2L15 3L14 3L14 4L16 4L16 5L17 5L17 8L19 8L19 7L20 7L20 6L19 6L19 7L18 7L18 5L17 5L17 3L16 3L16 2L17 2L17 1ZM27 1L27 3L28 3L28 4L29 4L29 3L31 3L31 1L30 1L30 2L29 2L29 1ZM28 2L28 3L29 3L29 2ZM9 5L9 8L8 8L8 9L11 9L11 11L12 11L12 13L11 13L11 12L9 12L9 11L10 11L10 10L9 10L9 11L8 11L8 10L7 10L7 11L5 11L5 12L7 12L7 11L8 11L8 13L9 13L9 14L10 14L10 13L11 13L11 14L12 14L12 13L13 13L13 15L14 15L14 14L15 14L15 15L16 15L16 16L17 16L17 18L16 18L16 19L15 19L15 20L16 20L16 19L17 19L17 18L19 18L19 13L20 13L20 12L19 12L19 13L18 13L18 10L19 10L19 11L21 11L21 14L20 14L20 15L21 15L21 19L20 19L20 20L19 20L19 19L18 19L18 20L17 20L17 23L18 23L18 24L19 24L19 26L17 26L17 27L15 27L15 26L16 26L16 24L15 24L15 25L14 25L14 27L13 27L13 26L12 26L12 24L11 24L11 23L12 23L12 22L11 22L11 21L10 21L10 22L11 22L11 23L10 23L10 25L11 25L11 26L12 26L12 27L10 27L10 28L14 28L14 31L12 31L12 30L13 30L13 29L11 29L11 30L10 30L10 31L11 31L11 32L12 32L12 33L9 33L9 34L10 34L10 35L11 35L11 36L12 36L12 38L13 38L13 37L14 37L14 35L15 35L15 36L17 36L17 37L16 37L16 38L17 38L17 37L18 37L18 39L19 39L19 36L20 36L20 37L22 37L22 36L20 36L20 34L18 34L18 31L19 31L19 33L20 33L20 32L21 32L21 29L24 29L24 30L23 30L23 32L22 32L22 35L23 35L23 32L24 32L24 31L25 31L25 30L26 30L26 31L27 31L27 30L28 30L28 31L29 31L29 29L27 29L27 27L26 27L26 25L25 25L25 26L24 26L24 28L23 28L23 25L22 25L22 26L20 26L20 24L25 24L25 23L26 23L26 24L28 24L28 25L29 25L29 24L28 24L28 23L32 23L32 22L33 22L33 25L32 25L32 24L30 24L30 25L31 25L31 26L30 26L30 27L32 27L32 26L33 26L33 25L35 25L35 24L36 24L36 25L37 25L37 22L36 22L36 20L33 20L33 18L34 18L34 17L35 17L35 18L36 18L36 17L35 17L35 14L36 14L36 13L33 13L33 14L34 14L34 16L33 16L33 15L32 15L32 14L31 14L31 16L33 16L33 17L28 17L28 18L30 18L30 19L32 19L32 21L30 21L30 20L28 20L28 19L27 19L27 16L29 16L29 15L28 15L28 13L29 13L29 14L30 14L30 13L29 13L29 12L28 12L28 13L27 13L27 10L26 10L26 9L25 9L25 10L20 10L20 9L22 9L22 8L20 8L20 9L18 9L18 10L17 10L17 12L16 12L16 10L15 10L15 11L14 11L14 12L13 12L13 9L15 9L15 8L14 8L14 6L13 6L13 9L11 9L11 7L10 7L10 5ZM30 5L30 6L29 6L29 7L28 7L28 8L27 8L27 9L29 9L29 10L30 10L30 9L31 9L31 8L30 8L30 9L29 9L29 7L30 7L30 6L31 6L31 7L32 7L32 6L31 6L31 5ZM15 6L15 7L16 7L16 6ZM21 6L21 7L22 7L22 6ZM34 8L34 10L35 10L35 9L36 9L36 11L37 11L37 12L38 12L38 11L37 11L37 10L38 10L38 9L36 9L36 8ZM39 8L39 12L40 12L40 13L38 13L38 14L40 14L40 15L41 15L41 9L40 9L40 8ZM2 10L2 11L3 11L3 10ZM25 10L25 11L26 11L26 10ZM23 11L23 13L26 13L26 12L24 12L24 11ZM0 12L0 15L2 15L2 16L3 16L3 17L4 17L4 18L2 18L2 19L1 19L1 17L0 17L0 19L1 19L1 20L3 20L3 19L4 19L4 18L5 18L5 19L7 19L7 18L5 18L5 17L4 17L4 16L6 16L6 17L7 17L7 16L6 16L6 15L7 15L7 14L6 14L6 15L5 15L5 14L4 14L4 15L3 15L3 14L2 14L2 13L1 13L1 12ZM15 12L15 13L16 13L16 12ZM16 14L16 15L17 15L17 14ZM21 14L21 15L22 15L22 16L24 16L24 14L23 14L23 15L22 15L22 14ZM25 15L25 16L26 16L26 15ZM22 17L22 18L24 18L24 17ZM25 17L25 22L26 22L26 20L27 20L27 19L26 19L26 17ZM21 19L21 20L22 20L22 21L23 21L23 22L24 22L24 21L23 21L23 19ZM6 20L6 21L7 21L7 20ZM0 21L0 22L1 22L1 21ZM18 21L18 23L19 23L19 22L21 22L21 23L22 23L22 22L21 22L21 21ZM27 21L27 23L28 23L28 22L29 22L29 21ZM33 21L33 22L35 22L35 21ZM40 21L40 23L39 23L39 24L41 24L41 21ZM4 22L4 23L5 23L5 25L4 25L4 26L7 26L7 25L8 25L8 24L7 24L7 23L5 23L5 22ZM0 23L0 24L1 24L1 23ZM6 24L6 25L7 25L7 24ZM19 26L19 27L18 27L18 28L15 28L15 29L16 29L16 30L17 30L17 29L19 29L19 30L20 30L20 29L21 29L21 28L22 28L22 27L21 27L21 28L20 28L20 26ZM6 27L6 28L7 28L7 29L8 29L8 28L9 28L9 27L8 27L8 28L7 28L7 27ZM28 27L28 28L29 28L29 27ZM33 27L33 29L32 29L32 28L30 28L30 29L32 29L32 31L33 31L33 32L35 32L35 30L36 30L36 29L35 29L35 28L34 28L34 27ZM37 27L37 28L38 28L38 27ZM19 28L19 29L20 29L20 28ZM24 28L24 29L26 29L26 30L27 30L27 29L26 29L26 28ZM33 29L33 30L34 30L34 29ZM30 30L30 32L31 32L31 33L30 33L30 34L29 34L29 33L28 33L28 32L27 32L27 33L28 33L28 34L29 34L29 35L27 35L27 36L26 36L26 33L25 33L25 36L23 36L23 37L24 37L24 38L20 38L20 39L25 39L25 40L26 40L26 39L27 39L27 38L26 38L26 37L29 37L29 38L28 38L28 39L29 39L29 38L30 38L30 39L31 39L31 40L32 40L32 39L31 39L31 38L30 38L30 37L31 37L31 36L32 36L32 35L30 35L30 34L32 34L32 32L31 32L31 30ZM2 31L2 32L0 32L0 33L2 33L2 32L3 32L3 33L4 33L4 32L3 32L3 31ZM13 32L13 33L12 33L12 34L11 34L11 35L12 35L12 34L13 34L13 33L14 33L14 34L15 34L15 35L16 35L16 34L17 34L17 32L16 32L16 34L15 34L15 33L14 33L14 32ZM33 33L33 36L36 36L36 33ZM39 33L39 34L40 34L40 35L41 35L41 33ZM34 34L34 35L35 35L35 34ZM18 35L18 36L19 36L19 35ZM25 38L25 39L26 39L26 38ZM15 40L15 41L17 41L17 40ZM0 0L0 7L7 7L7 0ZM1 1L1 6L6 6L6 1ZM2 2L2 5L5 5L5 2ZM34 0L34 7L41 7L41 0ZM35 1L35 6L40 6L40 1ZM36 2L36 5L39 5L39 2ZM0 34L0 41L7 41L7 34ZM1 35L1 40L6 40L6 35ZM2 36L2 39L5 39L5 36Z" fill="#000000"/></g></g></svg>
