<?xml version="1.0" encoding="UTF-8"?>
<svg xmlns="http://www.w3.org/2000/svg" version="1.1" width="300" height="300" viewBox="0 0 300 300"><rect x="0" y="0" width="300" height="300" fill="#ffffff"/><g transform="scale(7.317)"><g transform="translate(0,0)"><path fill-rule="evenodd" d="M9 0L9 2L10 2L10 3L9 3L9 4L8 4L8 5L9 5L9 4L10 4L10 5L12 5L12 8L13 8L13 6L14 6L14 9L15 9L15 10L16 10L16 11L15 11L15 13L16 13L16 14L17 14L17 15L16 15L16 16L15 16L15 15L14 15L14 12L13 12L13 11L12 11L12 13L13 13L13 15L12 15L12 14L11 14L11 13L9 13L9 14L8 14L8 12L5 12L5 13L4 13L4 11L5 11L5 9L4 9L4 8L2 8L2 9L4 9L4 11L3 11L3 10L1 10L1 9L0 9L0 16L3 16L3 17L4 17L4 18L3 18L3 22L2 22L2 23L1 23L1 22L0 22L0 23L1 23L1 24L0 24L0 26L1 26L1 25L2 25L2 27L3 27L3 28L1 28L1 27L0 27L0 29L3 29L3 30L2 30L2 31L3 31L3 32L1 32L1 33L8 33L8 35L9 35L9 36L11 36L11 37L10 37L10 38L9 38L9 37L8 37L8 39L10 39L10 40L12 40L12 41L13 41L13 39L14 39L14 38L15 38L15 37L16 37L16 36L15 36L15 32L16 32L16 30L17 30L17 31L19 31L19 30L20 30L20 31L21 31L21 30L20 30L20 29L21 29L21 28L22 28L22 27L21 27L21 25L22 25L22 26L23 26L23 29L22 29L22 32L21 32L21 33L22 33L22 34L21 34L21 35L20 35L20 34L18 34L18 35L17 35L17 36L19 36L19 38L20 38L20 36L21 36L21 37L23 37L23 38L22 38L22 40L20 40L20 41L22 41L22 40L26 40L26 39L27 39L27 38L29 38L29 39L30 39L30 40L31 40L31 38L29 38L29 37L28 37L28 35L27 35L27 34L26 34L26 33L23 33L23 32L24 32L24 31L23 31L23 30L24 30L24 29L25 29L25 32L27 32L27 31L29 31L29 34L30 34L30 35L29 35L29 36L30 36L30 35L31 35L31 36L32 36L32 37L36 37L36 38L35 38L35 39L36 39L36 40L37 40L37 41L38 41L38 40L37 40L37 39L38 39L38 38L40 38L40 39L39 39L39 41L40 41L40 39L41 39L41 37L40 37L40 36L41 36L41 35L40 35L40 36L38 36L38 37L37 37L37 35L39 35L39 34L41 34L41 31L40 31L40 30L39 30L39 29L38 29L38 26L40 26L40 27L39 27L39 28L40 28L40 27L41 27L41 25L40 25L40 24L41 24L41 23L40 23L40 22L41 22L41 21L40 21L40 20L41 20L41 19L40 19L40 17L41 17L41 13L40 13L40 12L41 12L41 11L40 11L40 10L41 10L41 9L38 9L38 11L39 11L39 12L37 12L37 13L38 13L38 14L39 14L39 15L40 15L40 16L39 16L39 18L38 18L38 19L37 19L37 18L36 18L36 19L35 19L35 20L34 20L34 22L33 22L33 19L34 19L34 18L33 18L33 16L35 16L35 15L33 15L33 12L32 12L32 11L31 11L31 10L32 10L32 9L33 9L33 11L35 11L35 12L34 12L34 13L35 13L35 14L36 14L36 11L37 11L37 8L36 8L36 11L35 11L35 8L33 8L33 5L32 5L32 4L33 4L33 0L29 0L29 1L28 1L28 3L27 3L27 0L26 0L26 2L25 2L25 0L20 0L20 3L21 3L21 4L22 4L22 5L20 5L20 4L19 4L19 3L18 3L18 1L17 1L17 3L16 3L16 4L17 4L17 3L18 3L18 8L19 8L19 9L17 9L17 8L15 8L15 6L14 6L14 5L15 5L15 2L14 2L14 3L13 3L13 1L15 1L15 0L13 0L13 1L11 1L11 0ZM23 1L23 2L24 2L24 3L23 3L23 4L24 4L24 5L22 5L22 6L21 6L21 9L20 9L20 10L19 10L19 11L18 11L18 10L17 10L17 11L16 11L16 12L20 12L20 11L21 11L21 9L22 9L22 6L23 6L23 7L24 7L24 8L23 8L23 9L27 9L27 10L26 10L26 11L24 11L24 14L21 14L21 15L19 15L19 14L20 14L20 13L17 13L17 14L18 14L18 15L17 15L17 16L16 16L16 17L15 17L15 16L14 16L14 17L13 17L13 16L12 16L12 17L13 17L13 18L11 18L11 14L9 14L9 17L5 17L5 18L4 18L4 20L5 20L5 21L4 21L4 25L3 25L3 24L2 24L2 25L3 25L3 27L4 27L4 28L5 28L5 29L4 29L4 30L8 30L8 31L6 31L6 32L8 32L8 33L9 33L9 34L10 34L10 32L8 32L8 31L14 31L14 32L12 32L12 33L11 33L11 34L12 34L12 36L13 36L13 37L11 37L11 39L12 39L12 38L14 38L14 36L13 36L13 33L14 33L14 32L15 32L15 30L16 30L16 29L17 29L17 30L19 30L19 29L17 29L17 28L16 28L16 27L18 27L18 28L19 28L19 26L20 26L20 24L19 24L19 23L20 23L20 21L21 21L21 19L20 19L20 16L21 16L21 17L22 17L22 18L23 18L23 15L24 15L24 14L25 14L25 17L27 17L27 16L28 16L28 15L27 15L27 16L26 16L26 14L25 14L25 12L26 12L26 11L28 11L28 12L27 12L27 14L28 14L28 13L29 13L29 12L30 12L30 14L32 14L32 12L31 12L31 11L29 11L29 10L31 10L31 7L32 7L32 6L31 6L31 4L32 4L32 3L31 3L31 2L32 2L32 1L31 1L31 2L30 2L30 1L29 1L29 2L30 2L30 3L29 3L29 4L30 4L30 6L29 6L29 5L27 5L27 3L25 3L25 2L24 2L24 1ZM11 2L11 3L10 3L10 4L13 4L13 5L14 5L14 4L13 4L13 3L12 3L12 2ZM24 3L24 4L25 4L25 3ZM19 5L19 7L20 7L20 5ZM24 5L24 7L25 7L25 8L27 8L27 5L26 5L26 7L25 7L25 5ZM8 6L8 8L6 8L6 9L7 9L7 10L6 10L6 11L8 11L8 10L9 10L9 12L11 12L11 10L13 10L13 9L11 9L11 10L9 10L9 8L11 8L11 6L10 6L10 7L9 7L9 6ZM16 6L16 7L17 7L17 6ZM28 6L28 8L29 8L29 9L30 9L30 7L31 7L31 6L30 6L30 7L29 7L29 6ZM22 10L22 11L23 11L23 10ZM1 11L1 13L3 13L3 14L1 14L1 15L4 15L4 13L3 13L3 11ZM6 13L6 14L7 14L7 15L6 15L6 16L8 16L8 14L7 14L7 13ZM18 15L18 17L16 17L16 18L15 18L15 17L14 17L14 18L13 18L13 19L14 19L14 20L15 20L15 19L16 19L16 18L17 18L17 19L19 19L19 18L18 18L18 17L19 17L19 15ZM29 15L29 18L28 18L28 19L30 19L30 18L31 18L31 19L33 19L33 18L32 18L32 16L33 16L33 15L31 15L31 17L30 17L30 15ZM36 15L36 17L38 17L38 16L37 16L37 15ZM1 17L1 18L0 18L0 19L1 19L1 18L2 18L2 17ZM9 17L9 19L10 19L10 20L6 20L6 21L5 21L5 23L7 23L7 24L5 24L5 25L4 25L4 26L5 26L5 28L6 28L6 29L7 29L7 28L8 28L8 26L6 26L6 25L7 25L7 24L9 24L9 25L10 25L10 27L11 27L11 23L12 23L12 24L13 24L13 25L14 25L14 26L12 26L12 27L14 27L14 29L11 29L11 30L14 30L14 29L15 29L15 26L17 26L17 25L16 25L16 24L17 24L17 21L16 21L16 22L14 22L14 21L13 21L13 20L12 20L12 21L11 21L11 23L8 23L8 22L9 22L9 21L10 21L10 20L11 20L11 18L10 18L10 17ZM5 18L5 19L8 19L8 18ZM24 18L24 19L23 19L23 20L24 20L24 21L23 21L23 22L24 22L24 23L22 23L22 22L21 22L21 23L22 23L22 24L25 24L25 25L23 25L23 26L24 26L24 27L25 27L25 28L26 28L26 29L27 29L27 30L26 30L26 31L27 31L27 30L28 30L28 28L29 28L29 31L31 31L31 29L30 29L30 28L31 28L31 25L29 25L29 24L30 24L30 22L31 22L31 24L32 24L32 23L33 23L33 22L31 22L31 20L29 20L29 24L25 24L25 23L28 23L28 20L27 20L27 19L26 19L26 18ZM36 19L36 20L35 20L35 22L36 22L36 21L37 21L37 19ZM39 19L39 20L40 20L40 19ZM0 20L0 21L1 21L1 20ZM18 20L18 21L19 21L19 20ZM6 21L6 22L7 22L7 21ZM12 21L12 23L13 23L13 24L14 24L14 25L15 25L15 24L16 24L16 23L13 23L13 21ZM24 21L24 22L25 22L25 21ZM38 21L38 22L37 22L37 23L34 23L34 25L35 25L35 26L36 26L36 27L37 27L37 25L38 25L38 24L40 24L40 23L39 23L39 21ZM35 24L35 25L36 25L36 24ZM18 25L18 26L19 26L19 25ZM26 25L26 27L27 27L27 28L28 28L28 27L29 27L29 26L28 26L28 25ZM27 26L27 27L28 27L28 26ZM33 26L33 29L35 29L35 31L36 31L36 30L37 30L37 34L38 34L38 30L37 30L37 29L36 29L36 28L35 28L35 27L34 27L34 26ZM6 27L6 28L7 28L7 27ZM8 29L8 30L10 30L10 29ZM0 30L0 31L1 31L1 30ZM32 30L32 32L30 32L30 34L31 34L31 33L32 33L32 32L33 32L33 31L34 31L34 30ZM4 31L4 32L5 32L5 31ZM39 31L39 33L40 33L40 31ZM18 32L18 33L19 33L19 32ZM16 33L16 34L17 34L17 33ZM33 33L33 36L36 36L36 33ZM23 34L23 35L24 35L24 36L23 36L23 37L25 37L25 38L23 38L23 39L25 39L25 38L27 38L27 35L24 35L24 34ZM34 34L34 35L35 35L35 34ZM19 35L19 36L20 36L20 35ZM17 37L17 38L16 38L16 40L14 40L14 41L17 41L17 40L18 40L18 41L19 41L19 40L18 40L18 37ZM36 38L36 39L37 39L37 38ZM32 39L32 41L33 41L33 40L34 40L34 39ZM28 40L28 41L29 41L29 40ZM0 0L0 7L7 7L7 0ZM1 1L1 6L6 6L6 1ZM2 2L2 5L5 5L5 2ZM34 0L34 7L41 7L41 0ZM35 1L35 6L40 6L40 1ZM36 2L36 5L39 5L39 2ZM0 34L0 41L7 41L7 34ZM1 35L1 40L6 40L6 35ZM2 36L2 39L5 39L5 36Z" fill="#000000"/></g></g></svg>
