<?xml version="1.0" encoding="UTF-8"?>
<svg xmlns="http://www.w3.org/2000/svg" version="1.1" width="300" height="300" viewBox="0 0 300 300"><rect x="0" y="0" width="300" height="300" fill="#ffffff"/><g transform="scale(7.317)"><g transform="translate(0,0)"><path fill-rule="evenodd" d="M8 0L8 3L10 3L10 4L9 4L9 5L8 5L8 9L7 9L7 8L6 8L6 9L7 9L7 10L6 10L6 11L5 11L5 10L4 10L4 11L5 11L5 12L3 12L3 11L2 11L2 12L1 12L1 11L0 11L0 13L2 13L2 12L3 12L3 15L2 15L2 14L1 14L1 15L0 15L0 20L1 20L1 21L0 21L0 22L1 22L1 21L2 21L2 22L4 22L4 23L3 23L3 24L2 24L2 23L0 23L0 24L1 24L1 26L0 26L0 27L1 27L1 28L2 28L2 29L3 29L3 27L4 27L4 30L2 30L2 33L3 33L3 31L8 31L8 30L9 30L9 31L10 31L10 32L11 32L11 33L10 33L10 35L11 35L11 33L14 33L14 32L15 32L15 35L16 35L16 36L15 36L15 37L14 37L14 36L10 36L10 37L9 37L9 36L8 36L8 39L9 39L9 38L10 38L10 37L11 37L11 38L13 38L13 37L14 37L14 38L15 38L15 39L16 39L16 41L18 41L18 39L20 39L20 38L21 38L21 39L22 39L22 40L23 40L23 41L25 41L25 40L26 40L26 41L31 41L31 39L32 39L32 40L33 40L33 41L34 41L34 39L36 39L36 40L35 40L35 41L37 41L37 40L38 40L38 41L39 41L39 40L40 40L40 38L41 38L41 37L40 37L40 34L41 34L41 33L40 33L40 32L41 32L41 31L40 31L40 30L41 30L41 28L38 28L38 27L37 27L37 26L38 26L38 25L39 25L39 26L41 26L41 25L40 25L40 23L39 23L39 24L37 24L37 22L38 22L38 21L39 21L39 22L41 22L41 19L40 19L40 18L41 18L41 15L40 15L40 18L38 18L38 17L39 17L39 16L37 16L37 15L38 15L38 14L37 14L37 13L40 13L40 14L41 14L41 13L40 13L40 12L41 12L41 11L39 11L39 12L38 12L38 11L36 11L36 10L37 10L37 9L36 9L36 8L32 8L32 7L33 7L33 2L32 2L32 4L30 4L30 5L29 5L29 3L31 3L31 2L30 2L30 1L33 1L33 0L29 0L29 1L27 1L27 0L26 0L26 1L27 1L27 2L26 2L26 3L27 3L27 4L26 4L26 5L25 5L25 3L24 3L24 5L25 5L25 6L24 6L24 9L22 9L22 8L23 8L23 4L19 4L19 3L23 3L23 0L15 0L15 3L14 3L14 2L13 2L13 3L14 3L14 4L15 4L15 6L14 6L14 7L15 7L15 8L12 8L12 7L13 7L13 6L12 6L12 7L11 7L11 3L10 3L10 2L12 2L12 1L14 1L14 0ZM24 0L24 1L25 1L25 0ZM16 1L16 2L17 2L17 4L16 4L16 3L15 3L15 4L16 4L16 5L17 5L17 7L16 7L16 6L15 6L15 7L16 7L16 8L15 8L15 9L13 9L13 11L10 11L10 10L11 10L11 9L12 9L12 8L11 8L11 9L8 9L8 11L9 11L9 12L7 12L7 11L6 11L6 12L5 12L5 13L6 13L6 14L7 14L7 13L9 13L9 16L8 16L8 15L6 15L6 16L5 16L5 17L4 17L4 16L3 16L3 17L2 17L2 16L1 16L1 20L2 20L2 21L4 21L4 22L5 22L5 23L6 23L6 24L5 24L5 25L6 25L6 26L5 26L5 28L8 28L8 27L9 27L9 28L10 28L10 29L9 29L9 30L10 30L10 31L11 31L11 32L12 32L12 31L13 31L13 29L14 29L14 31L15 31L15 32L18 32L18 33L16 33L16 34L17 34L17 36L16 36L16 39L17 39L17 38L18 38L18 36L19 36L19 37L21 37L21 36L23 36L23 38L22 38L22 39L24 39L24 38L25 38L25 39L26 39L26 40L30 40L30 39L31 39L31 38L32 38L32 39L33 39L33 38L32 38L32 35L31 35L31 34L30 34L30 35L31 35L31 36L28 36L28 35L29 35L29 33L27 33L27 34L26 34L26 33L25 33L25 32L27 32L27 31L25 31L25 29L24 29L24 28L23 28L23 27L22 27L22 30L21 30L21 28L20 28L20 30L18 30L18 29L19 29L19 27L20 27L20 26L21 26L21 25L20 25L20 23L21 23L21 24L22 24L22 23L21 23L21 22L20 22L20 21L21 21L21 19L23 19L23 20L22 20L22 22L23 22L23 24L24 24L24 21L23 21L23 20L25 20L25 26L28 26L28 28L30 28L30 29L31 29L31 30L32 30L32 31L33 31L33 32L34 32L34 30L35 30L35 32L39 32L39 31L38 31L38 29L37 29L37 28L36 28L36 29L35 29L35 26L34 26L34 25L35 25L35 24L34 24L34 21L35 21L35 22L36 22L36 17L37 17L37 16L36 16L36 13L37 13L37 12L36 12L36 13L34 13L34 12L33 12L33 11L34 11L34 10L33 10L33 9L32 9L32 8L31 8L31 9L27 9L27 7L28 7L28 6L27 6L27 7L26 7L26 6L25 6L25 7L26 7L26 9L27 9L27 10L28 10L28 11L27 11L27 13L26 13L26 14L27 14L27 18L25 18L25 17L26 17L26 15L25 15L25 14L23 14L23 15L24 15L24 16L22 16L22 15L21 15L21 14L22 14L22 13L19 13L19 14L16 14L16 13L17 13L17 12L18 12L18 11L20 11L20 10L21 10L21 12L23 12L23 11L25 11L25 10L21 10L21 9L20 9L20 8L21 8L21 7L22 7L22 5L21 5L21 7L20 7L20 6L19 6L19 4L18 4L18 2L19 2L19 1ZM28 2L28 3L29 3L29 2ZM17 4L17 5L18 5L18 4ZM27 4L27 5L28 5L28 4ZM31 5L31 7L32 7L32 5ZM9 6L9 8L10 8L10 6ZM18 6L18 7L17 7L17 8L18 8L18 9L15 9L15 10L14 10L14 11L13 11L13 13L10 13L10 14L11 14L11 17L10 17L10 16L9 16L9 17L10 17L10 18L9 18L9 19L8 19L8 16L6 16L6 17L7 17L7 18L5 18L5 20L6 20L6 21L5 21L5 22L6 22L6 23L7 23L7 24L6 24L6 25L7 25L7 24L9 24L9 27L10 27L10 26L13 26L13 25L14 25L14 20L13 20L13 19L15 19L15 18L13 18L13 17L12 17L12 14L13 14L13 15L14 15L14 14L15 14L15 13L16 13L16 12L17 12L17 11L18 11L18 10L20 10L20 9L19 9L19 8L20 8L20 7L19 7L19 6ZM29 6L29 8L30 8L30 6ZM18 7L18 8L19 8L19 7ZM2 8L2 9L5 9L5 8ZM38 8L38 10L41 10L41 8ZM31 9L31 10L32 10L32 11L33 11L33 10L32 10L32 9ZM35 9L35 10L36 10L36 9ZM14 11L14 13L15 13L15 12L16 12L16 11ZM28 11L28 12L29 12L29 13L27 13L27 14L29 14L29 15L28 15L28 16L29 16L29 17L28 17L28 18L27 18L27 19L25 19L25 18L24 18L24 17L25 17L25 16L24 16L24 17L23 17L23 19L25 19L25 20L26 20L26 21L27 21L27 20L28 20L28 19L29 19L29 17L31 17L31 18L30 18L30 19L31 19L31 20L30 20L30 21L31 21L31 22L32 22L32 23L31 23L31 24L29 24L29 26L30 26L30 27L31 27L31 29L32 29L32 30L33 30L33 29L34 29L34 28L33 28L33 27L34 27L34 26L32 26L32 25L34 25L34 24L33 24L33 21L34 21L34 18L35 18L35 17L36 17L36 16L35 16L35 14L34 14L34 13L33 13L33 12L32 12L32 13L33 13L33 14L32 14L32 15L33 15L33 17L31 17L31 15L30 15L30 14L31 14L31 13L30 13L30 12L31 12L31 11L30 11L30 12L29 12L29 11ZM6 12L6 13L7 13L7 12ZM29 13L29 14L30 14L30 13ZM4 14L4 15L5 15L5 14ZM19 14L19 16L21 16L21 15L20 15L20 14ZM15 15L15 17L17 17L17 15ZM29 15L29 16L30 16L30 15ZM34 16L34 17L35 17L35 16ZM3 17L3 19L2 19L2 20L3 20L3 19L4 19L4 17ZM11 17L11 19L13 19L13 18L12 18L12 17ZM19 17L19 18L18 18L18 19L17 19L17 18L16 18L16 23L15 23L15 25L16 25L16 26L14 26L14 28L15 28L15 29L16 29L16 30L15 30L15 31L16 31L16 30L17 30L17 31L18 31L18 30L17 30L17 28L18 28L18 27L19 27L19 26L18 26L18 25L16 25L16 23L18 23L18 24L19 24L19 22L17 22L17 20L19 20L19 21L20 21L20 20L19 20L19 19L20 19L20 18L21 18L21 17ZM31 18L31 19L32 19L32 20L31 20L31 21L32 21L32 20L33 20L33 18ZM37 18L37 19L38 19L38 20L37 20L37 21L38 21L38 20L39 20L39 21L40 21L40 20L39 20L39 19L38 19L38 18ZM6 19L6 20L7 20L7 21L6 21L6 22L7 22L7 21L8 21L8 19ZM9 19L9 20L10 20L10 19ZM11 20L11 21L12 21L12 22L10 22L10 21L9 21L9 22L8 22L8 23L9 23L9 24L11 24L11 25L13 25L13 23L12 23L12 22L13 22L13 20ZM28 21L28 22L26 22L26 24L27 24L27 23L30 23L30 22L29 22L29 21ZM9 22L9 23L10 23L10 22ZM36 24L36 25L37 25L37 24ZM2 25L2 26L1 26L1 27L3 27L3 25ZM6 26L6 27L8 27L8 26ZM17 26L17 27L18 27L18 26ZM31 26L31 27L32 27L32 26ZM15 27L15 28L16 28L16 27ZM25 27L25 28L27 28L27 27ZM11 28L11 29L10 29L10 30L11 30L11 31L12 31L12 29L13 29L13 28ZM32 28L32 29L33 29L33 28ZM0 29L0 33L1 33L1 29ZM5 29L5 30L7 30L7 29ZM23 29L23 30L22 30L22 32L23 32L23 34L22 34L22 33L21 33L21 32L19 32L19 33L21 33L21 34L20 34L20 36L21 36L21 35L23 35L23 36L25 36L25 37L26 37L26 39L30 39L30 38L31 38L31 37L28 37L28 36L27 36L27 37L26 37L26 36L25 36L25 35L26 35L26 34L25 34L25 35L24 35L24 32L23 32L23 30L24 30L24 29ZM28 29L28 30L29 30L29 31L28 31L28 32L30 32L30 33L31 33L31 32L30 32L30 30L29 30L29 29ZM36 29L36 31L37 31L37 29ZM20 30L20 31L21 31L21 30ZM5 32L5 33L7 33L7 32ZM8 33L8 34L9 34L9 33ZM33 33L33 36L36 36L36 33ZM37 33L37 34L38 34L38 36L37 36L37 37L36 37L36 38L37 38L37 39L38 39L38 40L39 40L39 38L40 38L40 37L38 37L38 36L39 36L39 34L38 34L38 33ZM27 34L27 35L28 35L28 34ZM34 34L34 35L35 35L35 34ZM27 37L27 38L28 38L28 37ZM34 37L34 38L35 38L35 37ZM37 37L37 38L38 38L38 37ZM10 39L10 40L9 40L9 41L10 41L10 40L11 40L11 41L12 41L12 40L13 40L13 39ZM0 0L0 7L7 7L7 0ZM1 1L1 6L6 6L6 1ZM2 2L2 5L5 5L5 2ZM34 0L34 7L41 7L41 0ZM35 1L35 6L40 6L40 1ZM36 2L36 5L39 5L39 2ZM0 34L0 41L7 41L7 34ZM1 35L1 40L6 40L6 35ZM2 36L2 39L5 39L5 36Z" fill="#000000"/></g></g></svg>
