<?xml version="1.0" encoding="UTF-8"?>
<svg xmlns="http://www.w3.org/2000/svg" version="1.1" width="300" height="300" viewBox="0 0 300 300"><rect x="0" y="0" width="300" height="300" fill="#ffffff"/><g transform="scale(7.317)"><g transform="translate(0,0)"><path fill-rule="evenodd" d="M10 0L10 2L9 2L9 3L10 3L10 5L12 5L12 8L13 8L13 6L14 6L14 9L15 9L15 10L16 10L16 11L15 11L15 15L14 15L14 12L13 12L13 11L12 11L12 12L13 12L13 15L11 15L11 17L10 17L10 14L12 14L12 13L9 13L9 14L8 14L8 13L7 13L7 12L8 12L8 10L9 10L9 12L11 12L11 10L13 10L13 9L11 9L11 10L9 10L9 8L11 8L11 6L10 6L10 7L9 7L9 6L8 6L8 8L6 8L6 9L5 9L5 10L4 10L4 8L2 8L2 9L0 9L0 11L1 11L1 13L0 13L0 16L3 16L3 17L4 17L4 18L3 18L3 20L4 20L4 21L2 21L2 22L1 22L1 24L0 24L0 25L1 25L1 24L2 24L2 27L1 27L1 26L0 26L0 27L1 27L1 28L3 28L3 30L2 30L2 31L3 31L3 32L1 32L1 33L8 33L8 35L9 35L9 37L8 37L8 39L10 39L10 40L12 40L12 41L13 41L13 39L14 39L14 38L12 38L12 39L11 39L11 37L10 37L10 36L12 36L12 37L14 37L14 36L16 36L16 34L17 34L17 36L18 36L18 35L19 35L19 34L17 34L17 33L20 33L20 35L22 35L22 36L23 36L23 38L22 38L22 40L20 40L20 41L22 41L22 40L26 40L26 39L27 39L27 38L29 38L29 39L30 39L30 40L31 40L31 38L29 38L29 37L28 37L28 36L30 36L30 35L31 35L31 36L32 36L32 37L36 37L36 38L35 38L35 39L36 39L36 40L38 40L38 39L36 39L36 38L37 38L37 35L39 35L39 34L41 34L41 31L40 31L40 30L39 30L39 29L38 29L38 26L40 26L40 27L39 27L39 28L41 28L41 25L40 25L40 24L41 24L41 23L40 23L40 22L41 22L41 21L40 21L40 20L41 20L41 19L40 19L40 17L41 17L41 13L39 13L39 12L40 12L40 11L39 11L39 9L38 9L38 11L39 11L39 12L37 12L37 13L38 13L38 14L39 14L39 15L40 15L40 16L39 16L39 18L38 18L38 19L37 19L37 18L36 18L36 19L35 19L35 20L34 20L34 22L33 22L33 19L34 19L34 18L33 18L33 16L35 16L35 15L33 15L33 12L32 12L32 11L31 11L31 10L32 10L32 9L33 9L33 11L35 11L35 12L34 12L34 13L35 13L35 14L36 14L36 11L37 11L37 8L36 8L36 11L35 11L35 8L33 8L33 5L32 5L32 4L33 4L33 0L28 0L28 1L30 1L30 2L29 2L29 3L28 3L28 2L27 2L27 1L26 1L26 2L25 2L25 1L24 1L24 0L23 0L23 1L17 1L17 0L15 0L15 1L11 1L11 0ZM16 1L16 3L17 3L17 4L15 4L15 2L11 2L11 4L13 4L13 5L14 5L14 6L15 6L15 8L17 8L17 9L19 9L19 8L18 8L18 5L19 5L19 7L20 7L20 5L22 5L22 6L21 6L21 9L20 9L20 10L19 10L19 11L18 11L18 10L17 10L17 11L16 11L16 12L20 12L20 11L21 11L21 9L22 9L22 6L23 6L23 7L24 7L24 8L23 8L23 9L27 9L27 10L26 10L26 11L24 11L24 12L26 12L26 11L28 11L28 12L27 12L27 14L28 14L28 13L29 13L29 12L30 12L30 14L32 14L32 12L31 12L31 11L29 11L29 10L31 10L31 7L32 7L32 6L31 6L31 4L32 4L32 3L31 3L31 2L32 2L32 1L31 1L31 2L30 2L30 3L29 3L29 4L30 4L30 6L29 6L29 5L27 5L27 3L25 3L25 2L24 2L24 1L23 1L23 2L24 2L24 3L25 3L25 4L24 4L24 5L23 5L23 3L19 3L19 2L17 2L17 1ZM13 3L13 4L14 4L14 5L15 5L15 4L14 4L14 3ZM18 3L18 4L19 4L19 5L20 5L20 4L19 4L19 3ZM8 4L8 5L9 5L9 4ZM24 5L24 7L25 7L25 8L27 8L27 5L26 5L26 7L25 7L25 5ZM16 6L16 7L17 7L17 6ZM28 6L28 8L29 8L29 9L30 9L30 7L31 7L31 6L30 6L30 7L29 7L29 6ZM6 9L6 10L7 10L7 9ZM40 9L40 10L41 10L41 9ZM2 10L2 11L4 11L4 10ZM22 10L22 11L23 11L23 10ZM6 11L6 12L4 12L4 13L3 13L3 12L2 12L2 13L1 13L1 15L4 15L4 13L5 13L5 14L7 14L7 15L6 15L6 16L8 16L8 14L7 14L7 13L6 13L6 12L7 12L7 11ZM2 13L2 14L3 14L3 13ZM17 13L17 14L19 14L19 13ZM20 13L20 14L21 14L21 15L20 15L20 16L21 16L21 17L22 17L22 19L21 19L21 18L20 18L20 19L19 19L19 16L17 16L17 17L16 17L16 15L15 15L15 16L13 16L13 17L12 17L12 18L11 18L11 19L10 19L10 17L5 17L5 18L4 18L4 20L5 20L5 21L6 21L6 22L2 22L2 24L3 24L3 25L5 25L5 26L7 26L7 27L5 27L5 29L4 29L4 30L5 30L5 29L6 29L6 30L8 30L8 31L6 31L6 32L8 32L8 33L9 33L9 34L11 34L11 32L12 32L12 35L13 35L13 34L14 34L14 35L15 35L15 34L16 34L16 33L15 33L15 32L16 32L16 30L17 30L17 31L18 31L18 30L19 30L19 31L21 31L21 34L22 34L22 33L23 33L23 34L24 34L24 35L25 35L25 36L24 36L24 37L25 37L25 38L23 38L23 39L25 39L25 38L27 38L27 37L25 37L25 36L26 36L26 35L27 35L27 36L28 36L28 35L30 35L30 34L31 34L31 33L32 33L32 32L33 32L33 31L34 31L34 30L32 30L32 32L30 32L30 34L29 34L29 31L30 31L30 30L31 30L31 29L30 29L30 28L31 28L31 25L29 25L29 24L30 24L30 22L31 22L31 24L32 24L32 23L33 23L33 22L31 22L31 20L29 20L29 19L30 19L30 17L31 17L31 19L33 19L33 18L32 18L32 16L33 16L33 15L31 15L31 16L30 16L30 15L29 15L29 18L28 18L28 20L27 20L27 18L25 18L25 17L27 17L27 16L28 16L28 15L27 15L27 16L26 16L26 15L24 15L24 14L26 14L26 13L23 13L23 17L22 17L22 16L21 16L21 15L22 15L22 14L21 14L21 13ZM36 15L36 17L38 17L38 16L37 16L37 15ZM1 17L1 18L0 18L0 19L1 19L1 18L2 18L2 17ZM14 17L14 18L12 18L12 19L11 19L11 20L12 20L12 21L10 21L10 22L11 22L11 23L9 23L9 22L6 22L6 23L5 23L5 25L7 25L7 24L6 24L6 23L9 23L9 24L8 24L8 25L10 25L10 27L11 27L11 23L12 23L12 24L13 24L13 25L14 25L14 26L12 26L12 27L14 27L14 29L13 29L13 28L12 28L12 29L11 29L11 31L10 31L10 30L9 30L9 29L8 29L8 28L9 28L9 27L8 27L8 28L6 28L6 29L8 29L8 30L9 30L9 31L8 31L8 32L9 32L9 33L10 33L10 32L11 32L11 31L13 31L13 30L14 30L14 32L13 32L13 33L14 33L14 32L15 32L15 30L16 30L16 29L17 29L17 30L18 30L18 29L21 29L21 31L22 31L22 32L26 32L26 31L24 31L24 30L27 30L27 31L29 31L29 30L30 30L30 29L29 29L29 28L28 28L28 27L29 27L29 26L28 26L28 25L26 25L26 27L27 27L27 28L28 28L28 30L27 30L27 29L26 29L26 28L25 28L25 27L24 27L24 26L23 26L23 25L25 25L25 24L29 24L29 20L28 20L28 23L25 23L25 24L22 24L22 23L24 23L24 22L25 22L25 21L24 21L24 20L23 20L23 21L24 21L24 22L22 22L22 20L21 20L21 21L20 21L20 20L18 20L18 19L16 19L16 18L15 18L15 17ZM17 17L17 18L18 18L18 17ZM5 18L5 19L8 19L8 18ZM14 18L14 19L12 19L12 20L13 20L13 21L12 21L12 23L13 23L13 24L14 24L14 25L15 25L15 24L16 24L16 25L17 25L17 26L15 26L15 29L14 29L14 30L15 30L15 29L16 29L16 27L18 27L18 28L19 28L19 26L20 26L20 24L19 24L19 23L20 23L20 21L19 21L19 22L18 22L18 20L16 20L16 21L14 21L14 20L15 20L15 18ZM23 18L23 19L24 19L24 18ZM9 19L9 20L10 20L10 19ZM36 19L36 20L35 20L35 23L34 23L34 25L35 25L35 26L36 26L36 27L37 27L37 23L38 23L38 24L40 24L40 23L38 23L38 22L39 22L39 21L38 21L38 22L36 22L36 21L37 21L37 19ZM39 19L39 20L40 20L40 19ZM0 20L0 21L1 21L1 20ZM6 20L6 21L8 21L8 20ZM13 21L13 23L16 23L16 24L17 24L17 21L16 21L16 22L14 22L14 21ZM21 22L21 23L22 23L22 22ZM3 23L3 24L4 24L4 23ZM35 23L35 25L36 25L36 23ZM18 25L18 26L19 26L19 25ZM21 25L21 27L22 27L22 28L21 28L21 29L23 29L23 30L22 30L22 31L23 31L23 30L24 30L24 29L23 29L23 26L22 26L22 25ZM3 26L3 27L4 27L4 26ZM27 26L27 27L28 27L28 26ZM33 26L33 29L35 29L35 31L36 31L36 30L37 30L37 34L38 34L38 30L37 30L37 29L36 29L36 28L35 28L35 27L34 27L34 26ZM0 30L0 31L1 31L1 30ZM4 31L4 32L5 32L5 31ZM9 31L9 32L10 32L10 31ZM39 31L39 33L40 33L40 31ZM25 33L25 35L26 35L26 34L27 34L27 33ZM33 33L33 36L36 36L36 33ZM34 34L34 35L35 35L35 34ZM40 35L40 36L38 36L38 37L39 37L39 38L40 38L40 39L39 39L39 41L40 41L40 39L41 39L41 37L40 37L40 36L41 36L41 35ZM19 36L19 38L20 38L20 36ZM9 37L9 38L10 38L10 37ZM17 37L17 38L16 38L16 40L14 40L14 41L17 41L17 40L18 40L18 41L19 41L19 40L18 40L18 37ZM32 39L32 41L33 41L33 40L34 40L34 39ZM28 40L28 41L29 41L29 40ZM0 0L0 7L7 7L7 0ZM1 1L1 6L6 6L6 1ZM2 2L2 5L5 5L5 2ZM34 0L34 7L41 7L41 0ZM35 1L35 6L40 6L40 1ZM36 2L36 5L39 5L39 2ZM0 34L0 41L7 41L7 34ZM1 35L1 40L6 40L6 35ZM2 36L2 39L5 39L5 36Z" fill="#000000"/></g></g></svg>
